<svg xmlns="http://www.w3.org/2000/svg" xmlns:xlink="http://www.w3.org/1999/xlink" width="35" height="35" xmlns:v="https://vecta.io/nano"><defs><filter id="A" x="0%" y="0%" width="100%" height="100%"><feColorMatrix in="SourceGraphic" values="0 0 0 0 1 0 0 0 0 1 0 0 0 0 1 0 0 0 1 0"/></filter><mask id="B"><g filter="url(#A)"><path d="M0 0h35v35H0z" fill="rgb(0%,0%,0%)" fill-opacity=".502" stroke="none"/></g></mask><linearGradient id="C" gradientUnits="userSpaceOnUse" x1=".5" y1="686.625" x2="1371.701" y2="686.625"><stop offset=".117" stop-color="rgb(100%,100%,100%)" stop-opacity="0"/><stop offset=".252" stop-color="rgb(75.294118%,81.960784%,82.745098%)" stop-opacity=".153"/><stop offset=".387" stop-color="rgb(56.862745%,70.196078%,71.764706%)" stop-opacity=".306"/><stop offset=".52" stop-color="rgb(42.745098%,62.352941%,63.921569%)" stop-opacity=".46"/><stop offset=".65" stop-color="rgb(30.196078%,56.862745%,58.431373%)" stop-opacity=".604"/><stop offset=".776" stop-color="rgb(18.823529%,53.333333%,54.509804%)" stop-opacity=".745"/><stop offset=".895" stop-color="rgb(7.843137%,51.372549%,52.54902%)" stop-opacity=".882"/><stop offset="1" stop-color="rgb(0%,50.588235%,51.764706%)"/></linearGradient><linearGradient id="D" gradientUnits="userSpaceOnUse" x1="0" y1="686.625" x2="1372.201" y2="686.625"><stop offset="0" stop-color="rgb(100%,100%,100%)" stop-opacity="0"/><stop offset=".153" stop-color="rgb(75.294118%,81.960784%,82.745098%)" stop-opacity=".153"/><stop offset=".306" stop-color="rgb(56.862745%,70.196078%,71.764706%)" stop-opacity=".306"/><stop offset=".457" stop-color="rgb(42.745098%,62.352941%,63.921569%)" stop-opacity=".46"/><stop offset=".604" stop-color="rgb(30.196078%,56.862745%,58.431373%)" stop-opacity=".604"/><stop offset=".746" stop-color="rgb(18.823529%,53.333333%,54.509804%)" stop-opacity=".745"/><stop offset=".881" stop-color="rgb(7.843137%,51.372549%,52.54902%)" stop-opacity=".882"/><stop offset="1" stop-color="rgb(0%,50.588235%,51.764706%)"/></linearGradient><clipPath id="E"><path d="M0 0h35v35H0z"/></clipPath><g id="F" clip-path="url(#E)"><path d="M34.988 17.508A17.49 17.49 0 0 1 17.5 34.988 17.49 17.49 0 0 1 .012 17.508 17.49 17.49 0 0 1 17.5.027a17.49 17.49 0 0 1 17.488 17.48zm0 0" fill-rule="nonzero" fill="url(#C)" stroke-width="1" stroke-linecap="butt" stroke-linejoin="miter" stroke="url(#D)" stroke-miterlimit="10"/></g></defs><g fill="#4a90d6" stroke="#dadada"><path d="M34.988 17.492A17.49 17.49 0 0 1 17.5 34.973 17.49 17.49 0 0 1 .012 17.492 17.49 17.49 0 0 1 17.5.012a17.49 17.49 0 0 1 17.488 17.48zm0 0" stroke-width=".932" stroke-miterlimit="10"/><use xlink:href="#F" mask="url(#B)"/><path d="M24.18 23.742c-.328 0-.668-.023-1-.074-2.777-.395-4.637-2.4-5.68-3.926-1.043 1.535-2.902 3.53-5.68 3.93a7.13 7.13 0 0 1-1 .07c-1.727 0-3.348-.645-4.57-1.8a6.11 6.11 0 0 1-1.91-4.441 6.1 6.1 0 0 1 1.914-4.445c1.22-1.164 2.844-1.8 4.57-1.8.328 0 .664.023.996.074 2.777.395 4.637 2.4 5.68 3.926 1.043-1.535 2.902-3.53 5.68-3.926.332-.05.668-.074.996-.074 1.73 0 3.352.645 4.57 1.8a6.1 6.1 0 0 1 1.914 4.445c0 1.684-.676 3.262-1.9 4.44-1.223 1.164-2.844 1.8-4.57 1.8m-5.445-6.25c.54 1.03 2.14 3.613 4.762 3.988a5.24 5.24 0 0 0 .684.047c2.352 0 4.266-1.8 4.266-4.035s-1.914-4.04-4.27-4.04a5.02 5.02 0 0 0-.68.051c-2.62.375-4.223 2.953-4.762 3.988m-7.9-4.035c-2.355 0-4.27 1.8-4.27 4.035s1.914 4.035 4.266 4.035c.227 0 .457-.016.688-.047 2.617-.375 4.22-2.953 4.762-3.988-.543-1.03-2.145-3.613-4.762-3.988a5.24 5.24 0 0 0-.684-.047M9.04 16.88h3.895v1.254H9.04zm16.887 0H24.6v-1.316h-1.258v1.316h-1.32v1.254h1.32v1.32H24.6v-1.32h1.316zm0 0"/></g></svg>