<svg xmlns="http://www.w3.org/2000/svg" xmlns:v="https://vecta.io/nano" width="35" height="35"><rect id="backgroundrect" width="100%" height="100%" x="0" y="0" fill="none" stroke="none"/><g class="currentLayer" style=""><title>Layer 1</title><path d="M33.29 2.945H1.707A1.71 1.71 0 0 0 0 4.656v19.605c0 .94.766 1.71 1.707 1.71h11.84l-.227 1.777h-1.004c-.543 0-1.023.367-1.168.895l-.6 2.18c-.082.297-.02.605.164.848s.473.383.773.383h12.008a.96.96 0 0 0 .777-.379.98.98 0 0 0 .164-.852l-.594-2.184c-.145-.527-.62-.89-1.168-.895H21.68l-.227-1.777h11.84A1.71 1.71 0 0 0 35 24.262V4.656a1.71 1.71 0 0 0-1.707-1.711zM22.68 28.773c.086 0 .16.055.184.137l.574 2.117H11.563l.574-2.117c.023-.078.098-.137.18-.137h10.367zm-8.328-1.027l.23-1.777h5.836l.227 1.777zm19.62-3.484a.68.68 0 0 1-.684.684H1.707c-.375 0-.684-.305-.684-.684V4.656c0-.38.31-.684.684-.684H33.29a.68.68 0 0 1 .684.684zm-19.52-11.594a.51.51 0 0 0-.699.188c-.125.215-.355.352-.61.352s-.48-.137-.605-.352c-.145-.242-.457-.328-.7-.187s-.328.453-.19.7c.31.535.88.863 1.496.867s1.19-.332 1.5-.867a.51.51 0 0 0-.191-.699zm8.71 0c-.246-.14-.562-.06-.703.188-.125.22-.355.352-.605.352s-.484-.133-.61-.352c-.145-.242-.453-.328-.7-.187s-.328.453-.19.7a1.74 1.74 0 0 0 1.5.867c.613 0 1.188-.332 1.496-.867.14-.246.055-.56-.187-.7zm-4.488.566h-2.352c-.28 0-.512.23-.512.512v.883a1.69 1.69 0 0 0 1.688 1.688 1.69 1.69 0 0 0 1.688-1.687v-.883c0-.28-.23-.512-.512-.512zm-1.176 2.06c-.367 0-.664-.297-.664-.664v-.367h1.328v.367c0 .367-.297.664-.664.664zm4.742-.535h-.777c-.28 0-.512.23-.512.512s.23.516.512.516h.777c.28 0 .512-.23.512-.516s-.23-.512-.512-.512zm-8.707 0h-.777c-.28 0-.512.23-.512.512s.23.516.512.516h.777c.28 0 .512-.23.512-.516s-.23-.512-.512-.512zm18.56-9.418H2.906a.51.51 0 0 0-.516.512v17.215c0 .28.23.512.516.512H25.94a.51.51 0 1 0 0-1.023H3.418V6.363h28.164v16.19h-3.727a.51.51 0 0 0-.512.512c0 .28.23.512.512.512h4.238a.51.51 0 0 0 .512-.512V5.852a.51.51 0 0 0-.512-.512zm0 0" fill="#0088cc" id="svg_1" class="selected" fill-opacity="1"/></g></svg>