<svg xmlns="http://www.w3.org/2000/svg" width="35" height="35" xmlns:v="https://vecta.io/nano"><path d="M17.44 3.29c-.562 0-1.125.21-1.55.637l-3.54 3.535c-.203.207-.32.484-.32.773v12.344c0 .44.266.84.676 1.012s.88.074 1.19-.238l10.488-10.488c.426-.426.426-1.117 0-1.547l-5.395-5.39c-.426-.426-.988-.637-1.55-.637zm-.004 2.184l4.63 4.617-7.848 7.848v-9.25zm-8.72 6.043c-.28.008-.543.125-.742.32L3.863 15.95c-.848.848-.848 2.254 0 3.098l4.113 4.117a1.09 1.09 0 0 0 1.191.234 1.09 1.09 0 0 0 .676-1.008v-9.78c0-.293-.12-.578-.332-.785a1.11 1.11 0 0 0-.793-.309zm17.97.574a1.09 1.09 0 0 0-.754.32l-5.18 5.176c-.426.43-.426 1.12 0 1.547l4.316 4.316c.203.207.48.32.773.32s.57-.113.773-.32l4.398-4.398a2.21 2.21 0 0 0 0-3.102l-3.54-3.54a1.1 1.1 0 0 0-.789-.32zm.016 2.64l2.766 2.766-3.625 3.633-2.77-2.77zm-19.047.52v4.5L5.4 17.504zm10.762 5.11a1.09 1.09 0 0 0-.754.32l-5.313 5.313c-.426.426-.426 1.117 0 1.547l3.54 3.54c.844.848 2.25.848 3.098 0l4.535-4.535c.426-.426.426-1.12 0-1.547l-4.316-4.316c-.207-.207-.492-.324-.79-.32zm.02 2.64l2.766 2.77-3.762 3.758-2.77-2.762zm0 0" fill="#08c"/></svg>