<svg xmlns="http://www.w3.org/2000/svg" xmlns:v="https://vecta.io/nano" width="35" height="35"><rect id="backgroundrect" width="100%" height="100%" x="0" y="0" fill="none" stroke="none"/><g class="currentLayer" style=""><title>Layer 1</title><path d="M10.797 19.246c.195.188.285.46.238.73l-.8 4.668c-.254 1.484 1.355 2.652 2.688 1.953l4.19-2.207a.86.86 0 0 1 .77 0l4.195 2.207c1.332.7 2.94-.473 2.688-1.953l-.8-4.668c-.047-.27.04-.543.234-.73l3.395-3.31c1.082-1.055.46-2.94-1.027-3.16l-4.687-.68c-.27-.04-.504-.207-.62-.453L19.16 7.398c-.668-1.352-2.656-1.352-3.32 0l-2.098 4.246a.82.82 0 0 1-.621.453l-4.687.68c-1.484.22-2.105 2.113-1.027 3.16zm-2.87-4.887c.1-.28.32-.52.652-.566l4.688-.68a1.86 1.86 0 0 0 1.395-1.012l2.098-4.25c.3-.605 1.184-.605 1.48 0l2.098 4.25c.27.543.793.922 1.395 1.012l4.688.68c.668.098.94.938.457 1.4l-3.39 3.31c-.437.422-.637 1.035-.53 1.637l.8 4.668c.113.664-.605 1.188-1.2.87l-4.195-2.203c-.535-.28-1.187-.28-1.723 0l-4.19 2.203c-.598.316-1.312-.207-1.2-.87l.8-4.668a1.85 1.85 0 0 0-.535-1.637l-3.39-3.31a.83.83 0 0 1-.195-.844zm5.668 2.93c.285 0 .516-.23.516-.512v-.707a.51.51 0 1 0-1.027 0v.707c0 .28.23.512.512.512zm7.81 0c.28 0 .512-.23.512-.512v-.707a.51.51 0 1 0-1.023 0v.707a.51.51 0 0 0 .512.512zm-3.902.375c.523 0 1.016-.22 1.348-.602.125-.137.164-.328.105-.504a.51.51 0 0 0-.391-.34c-.18-.035-.367.03-.488.172a.75.75 0 0 1-.574.25.77.77 0 0 1-.578-.25c-.187-.215-.512-.234-.723-.05s-.234.512-.05.723c.336.383.828.602 1.352.602zM5.125 29.875A17.39 17.39 0 0 0 17.5 35c4.672 0 9.066-1.82 12.375-5.125 3.297-3.3 5.113-7.68 5.125-12.34v-.074c-.012-4.66-1.832-9.04-5.125-12.336C26.566 1.82 22.172 0 17.5 0c-2.63 0-5.156.57-7.516 1.69-.168.078-.277.242-.293.426a.51.51 0 0 0 .219.465.52.52 0 0 0 .516.035c2.066-.98 4.27-1.516 6.563-1.586v2.89c-3.27.12-6.332 1.39-8.727 3.617L6.22 5.492a16.59 16.59 0 0 1 2.402-1.871.51.51 0 1 0-.555-.863c-1.063.684-2.047 1.477-2.94 2.367C1.82 8.434 0 12.828 0 17.5s1.82 9.066 5.125 12.375zM8.617 8.617c2.37-2.37 5.527-3.68 8.883-3.68a12.49 12.49 0 0 1 8.883 3.68 12.49 12.49 0 0 1 3.68 8.883 12.53 12.53 0 0 1-.84 4.516c-.102.266.03.563.293.664s.563-.03.664-.293a13.63 13.63 0 0 0 .898-4.375h2.887c-.12 4.04-1.69 7.828-4.46 10.77l-2.043-2.043a13.43 13.43 0 0 0 1.734-2.324c.094-.156.098-.352.008-.516s-.258-.258-.44-.262a.52.52 0 0 0-.449.258 12.53 12.53 0 0 1-1.93 2.488 12.49 12.49 0 0 1-8.883 3.68c-3.355 0-6.512-1.31-8.883-3.68a12.49 12.49 0 0 1-3.68-8.883c0-3.355 1.31-6.512 3.68-8.883zm22.46 8.37c-.12-3.27-1.39-6.332-3.617-8.727l2.047-2.043a16.35 16.35 0 0 1 4.457 10.766h-2.887zM3.922 18.012c.12 3.266 1.39 6.332 3.613 8.727L5.492 28.78c-2.766-2.94-4.336-6.73-4.46-10.77zm4.34 9.45c2.395 2.227 5.457 3.496 8.727 3.617v2.887c-4.04-.12-7.828-1.69-10.77-4.46zm9.75 3.617c3.266-.12 6.332-1.39 8.727-3.613l2.043 2.043c-2.94 2.766-6.73 4.336-10.77 4.46zm8.727-23.54a13.48 13.48 0 0 0-8.727-3.617V1.035c4.035.12 7.824 1.69 10.77 4.457zM5.492 6.22L7.54 8.262a13.48 13.48 0 0 0-3.617 8.727H1.03c.125-4.04 1.695-7.828 4.46-10.77zm0 0" fill="#0088cc" id="svg_1" class="selected" fill-opacity="1"/></g></svg>