<?xml version="1.0" encoding="UTF-8"?>
<svg xmlns="http://www.w3.org/2000/svg" xmlns:xlink="http://www.w3.org/1999/xlink" width="35pt" height="35pt" viewBox="0 0 35 35" version="1.1">
<g id="surface1">
<path style=" stroke:none;fill-rule:nonzero;fill:rgb(0%,0%,0%);fill-opacity:1;" d="M 10.796875 19.246094 C 10.992188 19.433594 11.082031 19.707031 11.035156 19.976562 L 10.234375 24.644531 C 9.980469 26.128906 11.589844 27.296875 12.921875 26.597656 L 17.113281 24.390625 C 17.351562 24.269531 17.648438 24.269531 17.882812 24.390625 L 22.078125 26.597656 C 23.410156 27.296875 25.019531 26.125 24.765625 24.644531 L 23.964844 19.976562 C 23.917969 19.707031 24.003906 19.433594 24.199219 19.246094 L 27.59375 15.9375 C 28.675781 14.882812 28.054688 12.996094 26.566406 12.777344 L 21.878906 12.097656 C 21.609375 12.058594 21.375 11.890625 21.257812 11.644531 L 19.160156 7.398438 C 18.492188 6.046875 16.503906 6.046875 15.839844 7.398438 L 13.742188 11.644531 C 13.621094 11.890625 13.390625 12.058594 13.121094 12.097656 L 8.433594 12.777344 C 6.949219 12.996094 6.328125 14.890625 7.40625 15.9375 Z M 7.925781 14.359375 C 8.015625 14.078125 8.246094 13.839844 8.578125 13.792969 L 13.265625 13.113281 C 13.871094 13.023438 14.390625 12.644531 14.660156 12.101562 L 16.757812 7.851562 C 17.058594 7.246094 17.941406 7.246094 18.238281 7.851562 L 20.335938 12.101562 C 20.605469 12.644531 21.128906 13.023438 21.730469 13.113281 L 26.417969 13.792969 C 27.085938 13.890625 27.359375 14.730469 26.875 15.203125 L 23.484375 18.511719 C 23.046875 18.933594 22.847656 19.546875 22.953125 20.148438 L 23.753906 24.816406 C 23.867188 25.480469 23.148438 26.003906 22.554688 25.6875 L 18.359375 23.484375 C 17.824219 23.203125 17.171875 23.203125 16.636719 23.484375 L 12.445312 25.6875 C 11.847656 26.003906 11.132812 25.480469 11.246094 24.816406 L 12.046875 20.148438 C 12.148438 19.546875 11.949219 18.9375 11.511719 18.511719 L 8.121094 15.203125 C 7.890625 14.976562 7.835938 14.644531 7.925781 14.359375 Z M 13.59375 17.289062 C 13.878906 17.289062 14.109375 17.058594 14.109375 16.777344 L 14.109375 16.070312 C 14.109375 15.785156 13.878906 15.558594 13.59375 15.558594 C 13.3125 15.558594 13.082031 15.785156 13.082031 16.070312 L 13.082031 16.777344 C 13.082031 17.058594 13.3125 17.289062 13.59375 17.289062 Z M 21.402344 17.289062 C 21.683594 17.289062 21.914062 17.058594 21.914062 16.777344 L 21.914062 16.070312 C 21.914062 15.785156 21.683594 15.558594 21.402344 15.558594 C 21.117188 15.558594 20.890625 15.785156 20.890625 16.070312 L 20.890625 16.777344 C 20.890625 17.058594 21.117188 17.289062 21.402344 17.289062 Z M 17.5 17.664062 C 18.023438 17.664062 18.515625 17.445312 18.847656 17.0625 C 18.972656 16.925781 19.011719 16.734375 18.953125 16.558594 C 18.894531 16.382812 18.746094 16.253906 18.5625 16.21875 C 18.382812 16.183594 18.195312 16.25 18.074219 16.390625 C 17.9375 16.550781 17.726562 16.640625 17.5 16.640625 C 17.269531 16.640625 17.0625 16.546875 16.921875 16.390625 C 16.734375 16.175781 16.410156 16.15625 16.199219 16.339844 C 15.984375 16.527344 15.964844 16.851562 16.148438 17.0625 C 16.484375 17.445312 16.976562 17.664062 17.5 17.664062 Z M 5.125 29.875 C 8.433594 33.179688 12.824219 35 17.5 35 C 22.171875 35 26.566406 33.179688 29.875 29.875 C 33.171875 26.574219 34.988281 22.195312 35 17.535156 C 35 17.523438 35 17.511719 35 17.5 C 35 17.488281 35 17.472656 35 17.460938 C 34.988281 12.800781 33.167969 8.421875 29.875 5.125 C 26.566406 1.820312 22.171875 0 17.5 0 C 14.871094 0 12.34375 0.570312 9.984375 1.691406 C 9.816406 1.769531 9.707031 1.933594 9.691406 2.117188 C 9.675781 2.300781 9.757812 2.476562 9.910156 2.582031 C 10.0625 2.683594 10.257812 2.699219 10.425781 2.617188 C 12.492188 1.636719 14.695312 1.101562 16.988281 1.03125 L 16.988281 3.921875 C 13.71875 4.042969 10.65625 5.3125 8.261719 7.539062 L 6.21875 5.492188 C 6.960938 4.796875 7.765625 4.167969 8.621094 3.621094 C 8.859375 3.46875 8.925781 3.152344 8.773438 2.914062 C 8.621094 2.675781 8.304688 2.605469 8.066406 2.757812 C 7.003906 3.441406 6.019531 4.234375 5.125 5.125 C 1.820312 8.433594 0 12.828125 0 17.5 C 0 22.171875 1.820312 26.566406 5.125 29.875 Z M 8.617188 8.617188 C 10.988281 6.246094 14.144531 4.9375 17.5 4.9375 C 20.855469 4.9375 24.007812 6.246094 26.382812 8.617188 C 28.753906 10.992188 30.0625 14.144531 30.0625 17.5 C 30.0625 19.054688 29.777344 20.574219 29.222656 22.015625 C 29.121094 22.28125 29.253906 22.578125 29.515625 22.679688 C 29.78125 22.78125 30.078125 22.648438 30.179688 22.386719 C 30.71875 20.984375 31.019531 19.515625 31.078125 18.011719 L 33.964844 18.011719 C 33.84375 22.050781 32.273438 25.839844 29.503906 28.78125 L 27.460938 26.738281 C 28.121094 26.027344 28.703125 25.25 29.195312 24.414062 C 29.289062 24.257812 29.292969 24.0625 29.203125 23.898438 C 29.113281 23.738281 28.945312 23.640625 28.761719 23.636719 C 28.578125 23.636719 28.40625 23.734375 28.3125 23.894531 C 27.777344 24.800781 27.128906 25.636719 26.382812 26.382812 C 24.007812 28.753906 20.855469 30.0625 17.5 30.0625 C 14.144531 30.0625 10.988281 28.753906 8.617188 26.382812 C 6.246094 24.007812 4.9375 20.855469 4.9375 17.5 C 4.9375 14.144531 6.246094 10.988281 8.617188 8.617188 Z M 31.078125 16.988281 C 30.957031 13.71875 29.6875 10.65625 27.460938 8.261719 L 29.507812 6.21875 C 32.273438 9.160156 33.84375 12.949219 33.964844 16.984375 L 31.078125 16.984375 Z M 3.921875 18.011719 C 4.042969 21.277344 5.3125 24.34375 7.535156 26.738281 L 5.492188 28.78125 C 2.726562 25.839844 1.15625 22.050781 1.03125 18.011719 Z M 8.261719 27.460938 C 10.65625 29.6875 13.71875 30.957031 16.988281 31.078125 L 16.988281 33.964844 C 12.949219 33.84375 9.160156 32.273438 6.21875 29.503906 Z M 18.011719 31.078125 C 21.277344 30.957031 24.34375 29.6875 26.738281 27.464844 L 28.78125 29.507812 C 25.839844 32.273438 22.050781 33.84375 18.011719 33.96875 Z M 26.738281 7.539062 C 24.34375 5.3125 21.277344 4.042969 18.011719 3.921875 L 18.011719 1.035156 C 22.046875 1.15625 25.835938 2.726562 28.78125 5.492188 Z M 5.492188 6.21875 L 7.539062 8.261719 C 5.3125 10.65625 4.042969 13.722656 3.921875 16.988281 L 1.03125 16.988281 C 1.15625 12.949219 2.726562 9.160156 5.492188 6.21875 Z M 5.492188 6.21875 "/>
</g>
</svg>
