<svg xmlns="http://www.w3.org/2000/svg" width="35" height="35" fill="#08c" xmlns:v="https://vecta.io/nano"><path d="M31.13 16.84c-.055-1.074-.73-2.074-1.984-2.434.914-.945.992-2.152.508-3.098-.207-.402-.437-.8-.684-1.18-.582-.906-1.668-1.434-2.937-1.117.313-1.258-.2-2.344-1.117-2.937l-1.18-.684c-.965-.492-2.168-.395-3.098.504-.36-1.254-1.363-1.926-2.434-1.98a14.41 14.41 0 0 0-1.363 0c-1.074.055-2.074.727-2.434 1.98-.93-.895-2.13-1-3.102-.504l-1.18.684c-.902.586-1.43 1.668-1.113 2.937-1.258-.312-2.36.234-2.934 1.12l-.68 1.2c-.48.945-.383 2.172.496 3.082-1.2.348-1.902 1.355-1.953 2.43l.004 1.387c.06 1.063.758 2.07 1.95 2.414-.852.887-.965 2.1-.477 3.066a12.87 12.87 0 0 0 .7 1.207 2.65 2.65 0 0 0 2.895 1.121 2.65 2.65 0 0 0 1.121 2.895l1.207.7a2.65 2.65 0 0 0 3.066-.48 2.65 2.65 0 0 0 2.414 1.953l1.387.004c1.066-.05 2.082-.746 2.43-1.957.918.887 2.145.977 3.078.5a12.37 12.37 0 0 0 1.191-.684 2.67 2.67 0 0 0 1.172-2.727l-.047-.203c1.25.313 2.34-.2 2.934-1.113.25-.383.477-.777.684-1.184.496-.965.398-2.168-.504-3.098 1.242-.36 1.93-1.348 1.984-2.434v-1.36zm-3.023-6.156a12.38 12.38 0 0 1 .633 1.094c.6 1.195-.45 2.328-1.398 2.582l-7.375 1.977A2.6 2.6 0 0 0 19.77 16l5.398-5.402c.668-.664 2.184-1.082 2.938.086zm-7.422-2.98c.25-.937 1.375-2.016 2.582-1.398a11.97 11.97 0 0 1 1.094.63c.56.363.84 1.012.715 1.656-.105.54-.316.97-.63 1.28l-5.402 5.402a2.64 2.64 0 0 0-.336-.191l1.977-7.38zm-1.97 11.012a1.69 1.69 0 0 1-1.195.492c-1.504 0-2.246-1.824-1.2-2.88.328-.328.762-.492 1.2-.492 1.508 0 2.25 1.824 1.195 2.88zM16.9 4.94a11.33 11.33 0 0 1 1.262 0c1.355.066 1.8 1.56 1.54 2.496l-1.977 7.38c-.13-.008-.258-.008-.387 0l-1.977-7.38c-.25-.937.18-2.43 1.54-2.496zm-6.207 1.996l1.1-.633c.586-.297 1.3-.2 1.797.22.4.355.676.754.8 1.18l1.977 7.38c-.117.055-.227.117-.336.2L10.61 9.875c-.664-.668-1.078-2.184.086-2.937zm-4.37 4.852a11.4 11.4 0 0 1 .633-1.098c.734-1.145 2.238-.78 2.93-.094L15.273 16a2.6 2.6 0 0 0-.195.336L7.703 14.36c-.418-.113-.8-.37-1.164-.77-.434-.488-.523-1.2-.227-1.8zm-.242 7.828a1.62 1.62 0 0 1-1.098-1.45 12.82 12.82 0 0 1-.004-1.285c.03-.664.473-1.25 1.094-1.453.5-.164.96-.2 1.375-.078l7.38 1.977a2.13 2.13 0 0 0 0 .387l-7.38 1.977c-.4.1-.87.086-1.367-.074zm.906 4.734l-.645-1.117c-.305-.594-.2-1.324.234-1.812.348-.383.73-.63 1.137-.738l7.375-1.977a2.89 2.89 0 0 0 .195.336L9.875 24.44c-.62.645-2.14 1.074-2.898-.1zm7.383 2.992c-.1.402-.36.785-.738 1.133-.488.445-1.22.54-1.816.234-.38-.195-.754-.414-1.113-.648a1.62 1.62 0 0 1-.707-1.691c.1-.5.316-.902.613-1.2l5.4-5.4a2.6 2.6 0 0 0 .336.195zm5.254 1.637c-.203.62-.8 1.063-1.457 1.094-.422.02-.855.02-1.28-.004a1.62 1.62 0 0 1-1.45-1.098c-.14-.437-.2-.93-.074-1.367l1.977-7.38a2.13 2.13 0 0 0 .387 0l1.977 7.38c.1.414.086.875-.078 1.375zm4.738-.883c-.352.23-.723.44-1.098.633a1.62 1.62 0 0 1-1.801-.23c-.398-.352-.656-.742-.77-1.16l-1.977-7.375a2.89 2.89 0 0 0 .336-.195l5.398 5.398c.684.684 1.063 2.2-.1 2.93zm4.387-4.828l-.633 1.1c-.75 1.156-2.262.758-2.937.082l-5.398-5.398a2.89 2.89 0 0 0 .195-.336l7.375 1.977c.95.254 2.012 1.383 1.398 2.586zm1.363-5.117c-.06 1.2-1.293 1.793-2.496 1.54l-7.38-1.977a2.13 2.13 0 0 0 0-.387l7.38-1.977c.922-.246 2.43.168 2.496 1.54v1.262zM28.645 6.398C22.512.266 12.53.266 6.398 6.398s-6.133 16.113 0 22.246 16.113 6.13 22.246 0c6.137-6.14 6.137-16.105 0-22.246zM17.52 32.215a14.67 14.67 0 0 1-10.395-4.297c-5.73-5.734-5.73-15.06 0-20.793 2.867-2.867 6.633-4.297 10.395-4.297 8.07 0 14.695 6.5 14.695 14.7 0 8.184-6.6 14.695-14.695 14.695zM35 16.3C34.363 7.16 26.758 0 17.52 0 7.836 0 0 7.836 0 17.52 0 26.75 7.148 34.363 16.3 35c.28.02.527-.195.547-.477a.52.52 0 0 0-.477-.551C7.762 33.375 1.027 26.148 1.027 17.52c0-9.094 7.398-16.492 16.492-16.492 8.63 0 15.855 6.734 16.457 15.332a.51.51 0 0 0 .547.477c.28-.02.496-.266.477-.547zm-.477 1.917c-.28-.02-.527.195-.547.477-.57 8.148-7.145 14.723-15.293 15.3a.52.52 0 0 0-.477.551c.02.28.266.496.547.477 8.7-.605 15.64-7.562 16.246-16.246.02-.28-.195-.527-.477-.547zm0 0"/></svg>