<?xml version="1.0" encoding="UTF-8"?>
<svg xmlns="http://www.w3.org/2000/svg" xmlns:xlink="http://www.w3.org/1999/xlink" width="35pt" height="35pt" viewBox="0 0 35 35" version="1.1">
<g id="surface1">
<path style=" stroke:none;fill-rule:nonzero;fill:rgb(0%,0%,0%);fill-opacity:1;" d="M 34.972656 22.390625 L 31.796875 13.160156 C 31.753906 13.03125 31.660156 12.925781 31.539062 12.867188 C 31.414062 12.804688 31.273438 12.796875 31.144531 12.84375 L 22.1875 15.992188 L 18.859375 15.621094 C 17.347656 15.453125 15.898438 16.207031 15.164062 17.539062 L 14.847656 18.113281 L 5.585938 12.871094 C 5.34375 12.734375 5.023438 12.824219 4.886719 13.066406 L 0.0664062 21.582031 C -0.0742188 21.828125 0.015625 22.140625 0.261719 22.28125 L 17.09375 31.808594 C 17.351562 31.957031 17.644531 32.03125 17.945312 32.03125 C 18.550781 32.03125 19.140625 31.714844 19.457031 31.152344 C 19.683594 30.753906 19.742188 30.28125 19.621094 29.839844 C 20.007812 29.730469 20.335938 29.5 20.566406 29.175781 C 20.921875 29.015625 21.867188 28.558594 22.84375 27.894531 C 23.828125 27.230469 24.546875 26.554688 25 25.882812 L 25.011719 25.914062 C 25.101562 26.179688 25.398438 26.320312 25.664062 26.230469 L 34.660156 23.039062 C 34.921875 22.945312 35.0625 22.65625 34.972656 22.390625 Z M 1.210938 21.640625 L 5.527344 14.015625 L 10.933594 17.078125 L 6.621094 24.703125 Z M 7.511719 25.207031 L 11.828125 17.585938 L 12.996094 18.246094 L 8.679688 25.867188 Z M 20.007812 26.65625 L 16.472656 24.65625 C 16.226562 24.519531 15.914062 24.609375 15.777344 24.851562 C 15.640625 25.097656 15.722656 25.40625 15.964844 25.546875 L 19.503906 27.550781 C 19.839844 27.742188 19.960938 28.179688 19.769531 28.519531 C 19.675781 28.6875 19.515625 28.800781 19.339844 28.851562 C 19.164062 28.898438 18.972656 28.882812 18.800781 28.785156 L 15.265625 26.785156 C 15.019531 26.644531 14.707031 26.730469 14.566406 26.976562 C 14.429688 27.226562 14.515625 27.539062 14.761719 27.675781 L 18.296875 29.679688 C 18.636719 29.871094 18.757812 30.304688 18.566406 30.648438 C 18.371094 30.988281 17.9375 31.109375 17.597656 30.914062 L 9.574219 26.371094 L 13.890625 18.75 L 14.351562 19.011719 L 13.289062 20.941406 C 12.832031 21.769531 13.148438 22.84375 13.96875 23.300781 C 14.375 23.523438 14.847656 23.574219 15.289062 23.445312 C 15.734375 23.320312 16.109375 23.019531 16.328125 22.617188 L 17.371094 20.722656 L 21.914062 23.292969 C 22.246094 23.480469 22.371094 23.925781 22.179688 24.261719 C 21.988281 24.601562 21.554688 24.722656 21.210938 24.527344 L 17.675781 22.527344 C 17.515625 22.433594 17.320312 22.4375 17.160156 22.527344 C 17.003906 22.621094 16.90625 22.792969 16.90625 22.976562 C 16.910156 23.160156 17.011719 23.328125 17.171875 23.417969 L 20.707031 25.421875 C 21.046875 25.613281 21.167969 26.046875 20.976562 26.390625 C 20.78125 26.730469 20.347656 26.851562 20.007812 26.65625 Z M 20.867188 27.886719 C 20.855469 27.828125 20.84375 27.769531 20.828125 27.710938 C 21.269531 27.585938 21.640625 27.292969 21.867188 26.894531 C 22.101562 26.480469 22.148438 26.007812 22.03125 25.582031 C 22.472656 25.460938 22.847656 25.164062 23.074219 24.765625 C 23.539062 23.941406 23.238281 22.863281 22.417969 22.398438 L 17.425781 19.574219 C 17.425781 19.574219 17.421875 19.574219 17.421875 19.574219 C 17.421875 19.574219 17.421875 19.574219 17.421875 19.570312 C 17.183594 19.441406 16.859375 19.53125 16.726562 19.769531 C 16.726562 19.769531 16.726562 19.769531 16.726562 19.773438 L 16.722656 19.773438 L 15.429688 22.121094 C 15.242188 22.460938 14.804688 22.589844 14.464844 22.402344 C 14.125 22.214844 14 21.777344 14.183594 21.4375 L 16.058594 18.035156 C 16.589844 17.066406 17.652344 16.515625 18.746094 16.640625 L 21.871094 16.988281 L 24.507812 24.492188 C 24.238281 25.839844 22.238281 27.164062 20.863281 27.890625 Z M 28.042969 24.304688 L 26.273438 19.277344 C 26.183594 19.023438 25.882812 18.871094 25.621094 18.964844 C 25.359375 19.054688 25.214844 19.355469 25.304688 19.617188 L 27.074219 24.644531 L 25.808594 25.089844 L 22.90625 16.828125 L 24.167969 16.382812 L 24.636719 17.714844 C 24.730469 17.980469 25.023438 18.121094 25.289062 18.027344 C 25.550781 17.9375 25.695312 17.632812 25.605469 17.375 L 25.136719 16.042969 L 30.996094 13.980469 L 33.839844 22.242188 Z M 17.5 2.96875 C 17.21875 2.96875 16.988281 3.195312 16.988281 3.480469 L 16.988281 6.050781 C 16.988281 6.335938 17.21875 6.566406 17.5 6.566406 C 17.78125 6.566406 18.011719 6.335938 18.011719 6.050781 L 18.011719 3.480469 C 18.011719 3.195312 17.78125 2.96875 17.5 2.96875 Z M 12.082031 7.417969 L 10.753906 5.21875 C 10.605469 4.976562 10.292969 4.898438 10.046875 5.042969 C 9.804688 5.191406 9.730469 5.503906 9.875 5.746094 L 11.207031 7.949219 C 11.300781 8.109375 11.472656 8.195312 11.644531 8.195312 C 11.734375 8.195312 11.828125 8.171875 11.910156 8.125 C 12.152344 7.976562 12.230469 7.660156 12.082031 7.417969 Z M 7.714844 11.65625 L 5.4375 10.457031 C 5.277344 10.371094 5.078125 10.378906 4.925781 10.476562 C 4.769531 10.574219 4.675781 10.75 4.683594 10.933594 C 4.691406 11.117188 4.796875 11.28125 4.960938 11.367188 L 7.238281 12.5625 C 7.484375 12.691406 7.800781 12.59375 7.929688 12.347656 C 8.0625 12.097656 7.964844 11.785156 7.714844 11.65625 Z M 24.953125 5.042969 C 24.707031 4.898438 24.394531 4.976562 24.246094 5.21875 L 22.917969 7.417969 C 22.769531 7.660156 22.847656 7.976562 23.089844 8.125 C 23.328125 8.269531 23.648438 8.1875 23.792969 7.949219 L 25.125 5.746094 C 25.269531 5.503906 25.195312 5.191406 24.953125 5.042969 Z M 30.253906 10.675781 C 30.121094 10.425781 29.8125 10.328125 29.5625 10.460938 L 27.285156 11.65625 C 27.035156 11.789062 26.9375 12.097656 27.070312 12.347656 C 27.199219 12.59375 27.515625 12.691406 27.761719 12.5625 L 30.039062 11.367188 C 30.289062 11.234375 30.386719 10.925781 30.253906 10.675781 Z M 30.253906 10.675781 "/>
</g>
</svg>
