<svg xmlns="http://www.w3.org/2000/svg" xmlns:v="https://vecta.io/nano" width="35" height="35"><rect id="backgroundrect" width="100%" height="100%" x="0" y="0" fill="none" stroke="none"/><g class="currentLayer" style=""><title>Layer 1</title><path d="M34.973 22.39l-3.176-9.23c-.043-.13-.137-.234-.258-.293s-.266-.07-.395-.023l-8.957 3.148-3.328-.37c-1.512-.168-2.96.586-3.695 1.918l-.316.574-9.262-5.242a.52.52 0 0 0-.699.195l-4.82 8.516c-.14.246-.05.56.195.7l16.832 9.527a1.7 1.7 0 0 0 .852.223c.605 0 1.195-.316 1.512-.88a1.73 1.73 0 0 0 .164-1.312c.387-.11.715-.34.945-.664a16.07 16.07 0 0 0 2.277-1.281c.984-.664 1.703-1.34 2.156-2.012l.012.03c.1.266.387.406.652.316l8.996-3.19c.262-.094.402-.383.313-.648zM1.21 21.64l4.316-7.625 5.406 3.063-4.312 7.625zm6.3 3.566l4.316-7.62 1.168.66-4.316 7.62zm12.496 1.45l-3.535-2c-.246-.137-.56-.047-.695.195s-.055.555.188.695l3.54 2.004c.336.19.457.63.266.97-.094.168-.254.28-.43.332a.71.71 0 0 1-.539-.066l-3.535-2a.51.51 0 0 0-.699.191c-.137.25-.05.563.195.7l3.535 2.004c.34.19.46.625.27.97a.71.71 0 0 1-.969.266L9.574 26.37l4.316-7.62.46.262-1.062 1.93c-.457.828-.14 1.902.68 2.36a1.73 1.73 0 0 0 1.32.145 1.71 1.71 0 0 0 1.039-.828l1.043-1.895 4.543 2.57a.72.72 0 0 1 .266.969.71.71 0 0 1-.969.266l-3.535-2c-.16-.094-.355-.1-.516 0s-.254.266-.254.45a.52.52 0 0 0 .266.441l3.535 2.004c.34.19.46.625.27.97a.71.71 0 0 1-.969.266zm.86 1.23l-.04-.176a1.74 1.74 0 0 0 1.039-.816 1.73 1.73 0 0 0 .164-1.312c.44-.12.816-.418 1.043-.816a1.76 1.76 0 0 0-.656-2.367l-4.992-2.824c-.242-.133-.566-.043-.7.195l-.004.004-1.293 2.348c-.187.34-.625.47-.965.28a.72.72 0 0 1-.281-.965l1.875-3.402c.53-.97 1.594-1.52 2.688-1.395l3.125.348 2.637 7.504c-.27 1.348-2.27 2.672-3.645 3.398zm7.176-3.582l-1.77-5.027c-.1-.254-.39-.406-.652-.312a.52.52 0 0 0-.316.652l1.77 5.027-1.266.445-2.902-8.262 1.262-.445.47 1.332c.094.266.387.406.652.313s.406-.395.316-.652l-.47-1.332 5.86-2.062 2.844 8.262zM17.5 2.97a.51.51 0 0 0-.512.512v2.57c0 .285.23.516.512.516s.512-.23.512-.516V3.48a.51.51 0 0 0-.512-.512zm-5.418 4.45l-1.328-2.2a.52.52 0 0 0-.707-.176c-.242.148-.316.46-.172.703l1.332 2.203c.094.16.266.246.438.246a.54.54 0 0 0 .266-.07c.242-.148.32-.465.172-.707zm-4.367 4.238l-2.277-1.2a.51.51 0 0 0-.512.02c-.156.098-.25.273-.242.457s.113.348.277.434l2.277 1.195a.52.52 0 0 0 .691-.215.51.51 0 0 0-.215-.691zm17.238-6.613a.52.52 0 0 0-.707.176l-1.328 2.2c-.148.242-.07.56.172.707a.52.52 0 0 0 .703-.176l1.332-2.203c.145-.242.07-.555-.172-.703zm5.3 5.633a.51.51 0 0 0-.691-.215l-2.277 1.195a.51.51 0 0 0-.215.691.52.52 0 0 0 .691.215l2.277-1.195a.51.51 0 0 0 .215-.691zm0 0" fill="#0088cc" id="svg_1" class="selected" fill-opacity="1"/></g></svg>