<svg xmlns="http://www.w3.org/2000/svg" width="35" height="35" fill="#08c" xmlns:v="https://vecta.io/nano"><path d="M24.777 12.316c-.28 0-.512.23-.512.512v.695a4.45 4.45 0 0 1-.992 2.797l-1.06 1.313c-.074.1-.117.203-.117.32v3.88a.514.514 0 1 0 1.027 0v-3.695l.95-1.172c.785-.97 1.22-2.2 1.22-3.44v-.695c0-.28-.23-.512-.516-.512zM22.613 23.37c-.285 0-.516.23-.516.516v10.06h-8.77v-2.652c0-.28-.23-.512-.516-.512a.51.51 0 0 0-.512.512v3.168a.51.51 0 0 0 .512.512h9.8a.51.51 0 0 0 .512-.512V23.887c0-.285-.23-.516-.512-.516zM33.258 3.254h-8.14a1.94 1.94 0 0 0-1.75-1.102 1.95 1.95 0 0 0-.926.234A1.94 1.94 0 0 0 20.52.684a1.91 1.91 0 0 0-1.137.371A1.93 1.93 0 0 0 17.672.027a1.93 1.93 0 0 0-1.707 1.027 1.92 1.92 0 0 0-1.137-.371 1.94 1.94 0 0 0-1.937 1.937v1.367a3.17 3.17 0 0 0-2.176-.863.51.51 0 0 0-.344.133H5.8l-.066.008-.07.02c-.023.008-.04.012-.055.02L.293 5.852c-.18.086-.293.266-.293.465a.51.51 0 0 0 .293.461L5.6 9.32c.02.012.035.016.047.02.027.012.04.016.055.016.027.008.04.012.055.012a.45.45 0 0 0 .066.004h4.37v5.082c0 1.137.477 2.23 1.313 3l.785.727v11.06c0 .285.23.516.512.516s.516-.23.516-.516V17.953c0-.14-.062-.277-.168-.375l-.95-.88c-.625-.578-.98-1.395-.98-2.246V4.215a2.16 2.16 0 0 1 1.64 2.094v2.965c0 .262.195.48.457.512.012 0 1.406.16 2.77.8 1.72.793 2.6 1.934 2.6 3.4 0 .285.23.516.512.516s.516-.23.516-.516c0-1.875-1.1-3.375-3.2-4.336l-.44-.187c.066-.055.13-.113.188-.176a1.94 1.94 0 0 0 1.422.625c.563 0 1.07-.242 1.426-.625a1.93 1.93 0 0 0 1.422.625c.563 0 1.07-.242 1.426-.625a1.93 1.93 0 0 0 1.422.625c.324 0 .63-.082.898-.223v1.105c0 .285.23.516.512.516s.516-.23.516-.516v-1.4h7.965c.96 0 1.742-.78 1.742-1.742V4.996c0-.957-.78-1.742-1.742-1.742zM5.32 8.043L3.508 7.18V5.453l1.813-.867zm4.883.3H6.348v-4.06h3.855zm5.535-.4c0 .5-.4.9-.9.9a.91.91 0 0 1-.91-.91V2.62a.91.91 0 1 1 1.82 0zm2.844-5.332v5.332a.91.91 0 0 1-.91.91.91.91 0 0 1-.906-.91V1.96c0-.5.406-.906.906-.906a.91.91 0 0 1 .91.906zM21.43 4.1v3.863a.91.91 0 0 1-.91.91c-.5 0-.9-.4-.9-.9V2.62a.91.91 0 1 1 1.82 0zm2.848 3.863c0 .5-.4.9-.9.9s-.9-.4-.9-.9V4.1a.91.91 0 1 1 1.82 0zm3.434.395h-2.406V4.28h2.406zm2.754 0H28.74V4.28h1.727zm3.508-.715c0 .395-.32.715-.715.715h-1.766V4.28h1.766a.72.72 0 0 1 .715.715zm0 0"/></svg>