<svg xmlns="http://www.w3.org/2000/svg" width="35" height="35" fill="#08c" xmlns:v="https://vecta.io/nano"><path d="M16.816 19.82l-8.402-5.875v8.03l2.168 1.52zm-7.664-4.457l6.297 4.406-4.832 2.848L9.152 21.6zM10.566 2.23L1.754 8.4l6.3 4.395 8.813-6.16zm-2.523 9.652L3.047 8.4l7.52-5.258 4.996 3.492zm0 0"/><path d="M27.328 21.46l5.88-4.113-5.88-3.465zm.738-6.285l3.773 2.227-3.773 2.637v-4.863zM7.672 21.46v-7.578l-5.88 3.465zm-.738-1.422L3.16 17.402l3.773-2.227zm0 0"/><path d="M34.453 16.367l-5.445-3.2L34.523 9.3A1.11 1.11 0 0 0 35 8.39a1.12 1.12 0 0 0-.473-.91L25.07.87c-.187-.133-.4-.2-.637-.2a1.09 1.09 0 0 0-.637.199L17.5 5.27 11.2.867A1.1 1.1 0 0 0 9.93.87L.477 7.48A1.1 1.1 0 0 0 0 8.39a1.11 1.11 0 0 0 .473.91l5.52 3.855-5.445 3.2c-.328.2-.53.535-.547.9a1.11 1.11 0 0 0 .473.957l6.46 4.516v3.785a1.11 1.11 0 0 0 .47.906l9.527 6.738.027.008a2.5 2.5 0 0 0 .086.047l.055.02.06.023.04.008a1.03 1.03 0 0 0 .305.047 1.07 1.07 0 0 0 .297-.043l.07-.023.086-.03.094-.05.023-.008 9.527-6.734a1.12 1.12 0 0 0 .469-.906V22.75l6.46-4.52c.313-.215.488-.574.473-.953a1.07 1.07 0 0 0-.547-.9zm-.352 1.258l-6.773 4.738v4.172c0 .117-.06.23-.156.3l-9.457 6.688c-.008.004-.016.004-.023.012s-.012.012-.02.016l-.043.012c-.008.004-.02.012-.027.012-.035.012-.066.016-.102.016a.45.45 0 0 1-.102-.012l-.027-.012c-.016-.008-.027-.012-.04-.016s-.016-.012-.023-.016l-.023-.012-9.457-6.687c-.098-.07-.156-.184-.156-.3v-4.172l-6.774-4.74a.36.36 0 0 1-.156-.316.37.37 0 0 1 .18-.305L7.36 13.2.898 8.695a.37.37 0 0 1-.16-.305.36.36 0 0 1 .16-.3l9.457-6.613c.125-.1.297-.1.422 0L17.5 6.172l6.72-4.695a.37.37 0 0 1 .426 0l9.457 6.6c.098.07.156.184.156.305s-.06.234-.156.305l-6.46 4.512 6.438 3.797c.105.063.176.18.18.305s-.055.246-.156.316zm-9.667 6.68c-.066 0-.13-.016-.187-.05l-6.375-3.762V32.51l8.715-6.164V22.88l-1.94 1.36c-.062.043-.137.066-.2.066zm1.414-.004v1.66L18.6 31.078v-9.3l5.258 3.102a1.11 1.11 0 0 0 .566.152 1.12 1.12 0 0 0 .637-.2zm-15.282.004a.37.37 0 0 1-.21-.066l-1.94-1.36v3.465l8.715 6.164V20.492l-6.375 3.762c-.06.035-.12.05-.187.05zM16.4 21.79v9.3l-7.238-5.12V24.3l.777.543c.188.133.4.2.637.2a1.08 1.08 0 0 0 .563-.152zm6.88-10.68L17.5 7.074 8.738 13.2l8.762 6.195 8.762-6.195zm-13.242 2.094L17.5 7.977l7.473 5.227L17.5 18.49zm0 0"/><path d="M18.184 19.82l6.23 3.676 2.172-1.52v-8.03L21.56 17.46zm7.664 1.773l-1.465 1.023-4.832-2.848 6.297-4.406zM24.434 2.23l-6.3 4.395 8.813 6.16 6.3-4.395zm-4.996 4.395l4.996-3.492 7.52 5.258-4.996 3.492zm0 0"/></svg>