<svg xmlns="http://www.w3.org/2000/svg" width="35" height="35" xmlns:v="https://vecta.io/nano"><path d="M18.82 5.957a1.48 1.48 0 0 0 1.48-1.477v-.7c0-.816-.664-1.48-1.48-1.48H10c-.816 0-1.48.664-1.48 1.48v.7A1.48 1.48 0 0 0 10 5.957zM9.547 4.48v-.7c0-.25.203-.457.453-.457h8.82c.25 0 .453.207.453.457v.7c0 .25-.203.453-.453.453H10c-.25 0-.453-.203-.453-.453zM5.594 26.37c-.28 0-.512.23-.512.516s.23.512.512.512h4.773a.51.51 0 1 0 0-1.027zM33.86 7.762l-3.137-2.19a2.64 2.64 0 0 0-1.902-.461v-.887A4.23 4.23 0 0 0 24.598 0H7.547c-.28 0-.512.23-.512.512s.23.516.512.516h17.05a3.2 3.2 0 0 1 3.195 3.195v1.254c-.31.188-.582.44-.797.75l-.703 1.008H1.023V4.223c0-1.762 1.438-3.195 3.2-3.195h.95c.285 0 .516-.23.516-.516S5.457 0 5.172 0h-.95A4.23 4.23 0 0 0 0 4.223v26.555A4.23 4.23 0 0 0 4.223 35h20.375c1.824 0 3.434-1.164 4.008-2.895a.51.51 0 0 0-.324-.648c-.27-.086-.56.06-.648.328-.434 1.31-1.656 2.188-3.035 2.188H4.223a3.2 3.2 0 0 1-3.195-3.195V8.258h24.547l-.035.047-1.934 2.762-1.46 2.1H5.594a.51.51 0 0 0-.512.512c0 .28.23.512.512.512h15.832l-2.367 3.38H5.594c-.28 0-.512.23-.512.516s.23.512.512.512h12.75l-1.277 1.82-.465.727-.44.832H5.594c-.28 0-.512.23-.512.516s.23.512.512.512h10.145a10.88 10.88 0 0 0-.578 2.645l-.2 2.29c-.074.832.293 1.617.977 2.098.398.277.86.422 1.32.422a2.32 2.32 0 0 0 .984-.223l2.07-.965c1.72-.805 3.195-2.043 4.273-3.586l3.207-4.582v8.523c0 .285.23.516.516.516s.512-.23.512-.516v-9.988l5.695-8.133c.848-1.21.55-2.883-.656-3.73zm-15.953 13.23l6.246-8.918 2.5 1.75-6.418 9.168-2.496-1.75.168-.25zm-.098 8.3c-.422.2-.902.156-1.285-.11s-.582-.703-.543-1.168l.12-1.39 2.97 2.078zm2.332-1.1l-3.93-2.754a9.79 9.79 0 0 1 1.012-3.316l5.688 3.984a9.81 9.81 0 0 1-2.77 2.086zm7.742-9.027l-4.312 6.148-2.496-1.746 6.418-9.164 2.5 1.75zm2.695-3.852l-5.836-4.1 1.344-1.922 5.84 4.1zm3.098-4.422l-1.164 1.66-5.836-4.1 1.16-1.66a1.64 1.64 0 0 1 1.066-.676c.098-.02.195-.027.29-.027a1.63 1.63 0 0 1 .945.301l3.133 2.19c.746.523.93 1.555.406 2.3zm0 0" fill="#08c"/></svg>