<svg xmlns="http://www.w3.org/2000/svg" xmlns:xlink="http://www.w3.org/1999/xlink" width="35" height="35" xmlns:v="https://vecta.io/nano"><g fill="#08c"><path d="M8.14 17.555c-.125-.125-.297-.195-.48-.195s-.355.07-.48.195a.69.69 0 0 0-.199.484.68.68 0 0 0 .2.477.69.69 0 0 0 .48.203.67.67 0 0 0 .48-.203.67.67 0 0 0 .199-.477c0-.184-.07-.36-.2-.484zm3.356-.195h-.6a.68.68 0 0 0-.68.68.69.69 0 0 0 .68.68h.6c.375 0 .68-.3.68-.68a.68.68 0 0 0-.68-.68zm3.14.195a.7.7 0 0 0-.484-.195c-.176 0-.352.07-.48.195a.69.69 0 0 0-.199.484.68.68 0 0 0 .2.477.7.7 0 0 0 .48.203.69.69 0 0 0 .484-.203.7.7 0 0 0 .195-.477.7.7 0 0 0-.195-.484zm3.246 0a.7.7 0 0 0-.48-.195.7.7 0 0 0-.484.195c-.125.125-.195.3-.195.484a.68.68 0 0 0 .195.477.69.69 0 0 0 .484.203c.176 0 .352-.074.48-.203a.68.68 0 0 0 .2-.477.69.69 0 0 0-.199-.484zm3.247 0a.69.69 0 0 0-.48-.195.7.7 0 0 0-.484.195c-.12.125-.195.3-.195.484a.7.7 0 0 0 .195.477.69.69 0 0 0 .484.203.68.68 0 0 0 .48-.203c.125-.125.2-.3.2-.477a.69.69 0 0 0-.199-.484zm3.24 0c-.12-.125-.297-.195-.477-.195a.68.68 0 0 0-.48.195.69.69 0 0 0-.2.484.67.67 0 0 0 .199.477.68.68 0 0 0 .48.203.66.66 0 0 0 .477-.203.67.67 0 0 0 .203-.477c0-.184-.074-.36-.203-.484zm0 0"/><path d="M27.62 17.555a.68.68 0 0 0-.48-.195.68.68 0 0 0-.48.195.69.69 0 0 0-.2.484.67.67 0 0 0 .679.68.67.67 0 0 0 .48-.203.69.69 0 0 0 .2-.477.69.69 0 0 0-.199-.484zM4.887 20.813h-.535c-.38 0-.68.3-.68.68a.68.68 0 0 0 .68.68h.535a.68.68 0 0 0 0-1.36zm3.785 0h-.535a.68.68 0 0 0 0 1.36h.535a.68.68 0 0 0 .68-.68c0-.38-.3-.68-.68-.68zm3.203.195a.7.7 0 0 0-.484-.195c-.176 0-.352.07-.48.195s-.2.305-.2.484a.7.7 0 0 0 .199.48.7.7 0 0 0 .48.199.7.7 0 0 0 .484-.2c.13-.126.195-.305.195-.48a.7.7 0 0 0-.195-.484zm3.29 0a.7.7 0 0 0-.48-.195.7.7 0 0 0-.484.195.7.7 0 0 0-.195.484c0 .176.07.352.195.48s.305.2.484.2a.7.7 0 0 0 .68-.68.7.7 0 0 0-.2-.484zM8.707 24.28c-.13-.12-.3-.195-.48-.195a.7.7 0 0 0-.48.195c-.125.13-.2.305-.2.484a.69.69 0 0 0 .2.48c.126.128.3.2.48.2s.352-.074.48-.2.2-.3.2-.48a.7.7 0 0 0-.2-.484zm3.29 0a.7.7 0 0 0-.48-.195c-.18 0-.352.074-.48.195-.125.13-.2.305-.2.484a.69.69 0 0 0 .2.48c.126.128.3.2.48.2a.68.68 0 0 0 .48-.2c.125-.126.2-.3.2-.48a.7.7 0 0 0-.2-.484zm8.124-3.467h-1.36a.68.68 0 0 0 0 1.36h1.36a.68.68 0 1 0 0-1.36zm-1.225 3.273h-3.7a.68.68 0 0 0-.68.68c0 .37.305.68.68.68h3.7a.68.68 0 0 0 .68-.68c0-.38-.3-.68-.68-.68zm11.555-3.273h-.543a.68.68 0 1 0 0 1.36h.543a.68.68 0 0 0 .68-.68c0-.38-.3-.68-.68-.68zm0 0"/><path d="M14.277 3.867c-.125-.12-.297-.195-.48-.195a.68.68 0 0 0-.477.195c-.13.13-.2.305-.2.484a.67.67 0 0 0 .2.48.67.67 0 0 0 .477.199.68.68 0 0 0 .48-.199c.13-.13.203-.305.203-.48a.69.69 0 0 0-.203-.484zm16.863 9.39H18.078a.48.48 0 0 0 .004-.074v-2.738c0-.586.477-1.062 1.063-1.062h2.652a2.86 2.86 0 0 0 2.859-2.859 2.86 2.86 0 0 0-2.859-2.852h-5.414a.68.68 0 0 0-.684.68c0 .375.3.68.684.68h5.414a1.5 1.5 0 0 1 1.5 1.492 1.5 1.5 0 0 1-1.5 1.5h-2.652c-1.336 0-2.422 1.086-2.422 2.422v2.738a.5.5 0 0 0 .004.074H3.66A3.67 3.67 0 0 0 0 16.934v8.1c0 2.02 1.64 3.66 3.66 3.66h12.902a.68.68 0 1 0 0-1.36H3.66a2.3 2.3 0 0 1-2.301-2.301v-8.1c0-1.28 1.03-2.316 2.3-2.316h27.48c1.273 0 2.3 1.035 2.3 2.316v8.1a2.3 2.3 0 0 1-1.633 2.203v-.996c0-1.05-.852-1.906-1.902-1.906a1.87 1.87 0 0 0-.64.113c-.25-.762-.965-1.312-1.8-1.312a1.8 1.8 0 0 0-.547.082v-.492c0-1.05-.852-1.902-1.906-1.902-1.047 0-1.902.852-1.902 1.902v.492a1.82 1.82 0 0 0-.547-.082 1.91 1.91 0 0 0-1.902 1.906v1.637c-.5-.344-1.1-.54-1.758-.54a.68.68 0 0 0-.68.68v4.684a4.92 4.92 0 0 0 1.066 3.051c.133.168.328.258.53.258.148 0 .297-.047.422-.148a.68.68 0 0 0 .109-.953c-.496-.625-.77-1.4-.77-2.207v-3.867a1.76 1.76 0 0 1 1.078 1.414v.422a.68.68 0 0 0 .68.68c.387 0 .695-.305.695-.68v-.203c0-.102-.008-.203-.016-.297v-3.93c0-.3.242-.547.543-.547a.55.55 0 0 1 .547.547v4.43a.68.68 0 0 0 1.36 0v-6.746c0-.3.246-.543.543-.543s.547.242.547.543v6.746a.68.68 0 1 0 1.36 0v-4.43c0-.3.242-.547.547-.547a.55.55 0 0 1 .543.547v4.43c0 .375.3.68.68.68a.68.68 0 0 0 .68-.68v-3.23a.55.55 0 0 1 .547-.547c.3 0 .543.246.543.547v7.9a.68.68 0 0 0 .68.68c.38 0 .68-.3.68-.68v-5.5a3.66 3.66 0 0 0 2.992-3.598v-8.1a3.67 3.67 0 0 0-3.66-3.676zM11.28 0H.68A.68.68 0 0 0 0 .68v10.875a.68.68 0 0 0 .68.68h10.6c.38 0 .68-.3.68-.68V.68a.68.68 0 0 0-.68-.68zm-.68 10.875H1.36V1.36h9.242zm0 0"/><use xlink:href="#B"/><path d="M8.242 5.438h-4.52a.68.68 0 0 0-.68.68c0 .38.3.68.68.68h4.52a.68.68 0 0 0 .68-.68.68.68 0 0 0-.68-.68zm0 0"/><use xlink:href="#B" y="-5.436"/></g><defs ><path id="B" d="M8.242 8.156h-4.52a.68.68 0 0 0-.68.68.68.68 0 0 0 .68.68h4.52a.68.68 0 0 0 .68-.68.68.68 0 0 0-.68-.68zm0 0"/></defs></svg>