<?xml version="1.0" standalone="no"?>
<!DOCTYPE svg PUBLIC "-//W3C//DTD SVG 1.0//EN" "http://www.w3.org/TR/2001/REC-SVG-20010904/DTD/svg10.dtd">
<svg xmlns="http://www.w3.org/2000/svg" xmlns:xlink="http://www.w3.org/1999/xlink" id="body_1" width="64" height="64">

<g transform="matrix(0.7529413 0 0 0.7529413 0 0)">
	<g transform="matrix(1.328125 0 0 1.328125 0 0)">
	</g>
    <path transform="matrix(1.328125 0 0 1.328125 0 0)"  d="M41.60156 3.101562C 38.60156 5.5 38 10.89844 40.60156 13.10156C 41.89844 14.19922 42.10156 15.69922 41.69922 20.19922C 41.30078 25.30078 41.39844 26 43.10156 26.5C 46.30078 27.5 47.89844 25.39844 47.30078 21.10156C 46.80078 17.69922 47.19922 16.89844 49.89844 14.39844C 54 10.80078 54.19922 6.101562 50.39844 3.101562C 48.89844 1.898438 47 1 46 1C 45 1 43.10156 1.898438 41.60156 3.101562z" stroke="none" fill="#000000" fill-rule="nonzero" />
	<g transform="matrix(1.328125 0 0 1.328125 0 0)">
	</g>
    <path transform="matrix(1.328125 0 0 1.328125 0 0)"  d="M26.69922 20.30078C 25.89844 21.60156 24.5 24.30078 23.60156 26.30078C 22.60156 28.89844 21.30078 30.10156 19.30078 30.60156C 14.69922 31.60156 14.30078 31.80078 17.39844 31.89844C 20.10156 32 20.19922 32.19922 19.60156 35.39844C 18.60156 40.60156 21 42.60156 30.30078 44.5C 34.60156 45.30078 38.5 45.80078 39 45.5C 39.5 45.19922 40.10156 45.39844 40.5 46C 40.89844 46.60156 41.5 46.80078 42 46.5C 42.39844 46.19922 45.60156 46.39844 48.89844 46.80078C 53.39844 47.5 55.30078 47.30078 56 46.39844C 56.60156 45.80078 57.30078 40.80078 57.69922 35.30078C 58.19922 27.10156 58 25.30078 56.69922 24.19922C 55.39844 23 55.10156 23.69922 54.5 29.69922C 54.10156 33.39844 53.30078 37.10156 52.80078 37.69922C 52.19922 38.39844 52.10156 39 52.60156 39C 53.10156 39 52.89844 39.39844 52.10156 39.89844C 51.39844 40.39844 49.19922 40.39844 47.10156 40C 45.10156 39.5 40.89844 38.60156 37.69922 38C 34.5 37.39844 32.10156 36.60156 32.39844 36.30078C 32.69922 35.89844 32.5 35.10156 32 34.5C 31.30078 33.60156 31.69922 31.19922 33.39844 26.39844C 34.80078 22.60156 35.80078 19.5 35.69922 19.39844C 35.60156 19.30078 33.89844 19 31.89844 18.60156C 28.80078 18.10156 28 18.30078 26.69922 20.30078z" stroke="none" fill="#000000" fill-rule="nonzero" />
	<g transform="matrix(1.328125 0 0 1.328125 0 0)">
	</g>
    <path transform="matrix(1.328125 0 0 1.328125 0 0)"  d="M37 27.5C 37 29.89844 41.60156 34 44.19922 34C 47.19922 34 50.60156 31.60156 51.30078 29C 51.89844 26.60156 51.19922 26.5 48.60156 28.5C 45.89844 30.60156 42.69922 30.39844 39.60156 27.89844C 37.39844 26.19922 37 26.10156 37 27.5z" stroke="none" fill="#000000" fill-rule="nonzero" />
	<g transform="matrix(1.328125 0 0 1.328125 0 0)">
	</g>
    <path transform="matrix(1.328125 0 0 1.328125 0 0)"  d="M6.300781 33.5C 0.5 36 -0.898438 42.39844 3.601562 45.89844C 5.101562 47.10156 6.800781 48 7.398438 48C 8 48 7.601562 47.39844 6.5 46.80078C 2.101562 44.39844 0.699219 40.10156 3.300781 36.60156C 4 35.60156 6.898438 34.19922 9.601562 33.5C 12.5 32.69922 13.5 32.10156 12 32.10156C 10.60156 32.10156 8.101562 32.69922 6.300781 33.5z" stroke="none" fill="#000000" fill-rule="nonzero" />
	<g transform="matrix(1.328125 0 0 1.328125 0 0)">
	</g>
    <path transform="matrix(1.328125 0 0 1.328125 0 0)"  d="M13 44.60156C 11.39844 48.69922 11.80078 50 14.39844 50C 17.39844 50 18 49.19922 17.30078 45.80078C 16.60156 42.10156 14.19922 41.39844 13 44.60156zM16 45C 16 45.5 15.60156 46 15 46C 14.5 46 14 45.5 14 45C 14 44.39844 14.5 44 15 44C 15.60156 44 16 44.39844 16 45zM16.5 48C 16.80078 48.5 16.39844 49 15.60156 49C 14.80078 49 13.80078 48.5 13.5 48C 13.19922 47.39844 13.60156 47 14.39844 47C 15.19922 47 16.19922 47.39844 16.5 48z" stroke="none" fill="#000000" fill-rule="nonzero" />
	<g transform="matrix(1.328125 0 0 1.328125 0 0)">
	</g>
    <path transform="matrix(1.328125 0 0 1.328125 0 0)"  d="M20.19922 45.19922C 18.39844 47 18.60156 50.10156 20.5 49.39844C 21.30078 49 22.69922 49.39844 23.60156 50.10156C 25 51.19922 25.10156 51 24.80078 47.89844C 24.5 44.30078 22.39844 43 20.19922 45.19922zM23.5 46.10156C 24.5 47.60156 23.39844 48.39844 21.5 47.60156C 20.60156 47.30078 20.19922 46.60156 20.5 46C 21.30078 44.69922 22.69922 44.69922 23.5 46.10156z" stroke="none" fill="#000000" fill-rule="nonzero" />
	<g transform="matrix(1.328125 0 0 1.328125 0 0)">
	</g>
    <path transform="matrix(1.328125 0 0 1.328125 0 0)"  d="M26.89844 48.69922C 27.30078 52 27.39844 52.19922 27.89844 50.10156C 28.80078 46.69922 30.60156 46.39844 30.5 49.60156C 30.5 54.5 36.89844 55.5 37.80078 50.80078C 38.19922 48.60156 35 45.80078 32.89844 46.30078C 31.80078 46.60156 30.69922 46.39844 30.39844 45.89844C 30.10156 45.39844 29.10156 45 28.10156 45C 26.69922 45 26.5 45.69922 26.89844 48.69922zM36 48.5C 37 49.69922 37 50.30078 36 51.5C 34.39844 53.39844 32.10156 53.39844 31.39844 51.5C 30.80078 50 32.5 47 34 47C 34.39844 47 35.30078 47.69922 36 48.5z" stroke="none" fill="#000000" fill-rule="nonzero" />
	<g transform="matrix(1.328125 0 0 1.328125 0 0)">
	</g>
    <path transform="matrix(1.328125 0 0 1.328125 0 0)"  d="M40.30078 48.69922C 38.19922 49.5 38.80078 53.80078 41.10156 55C 42.19922 55.69922 43.39844 55.89844 43.69922 55.69922C 43.89844 55.39844 43.19922 54.89844 42 54.5C 39.10156 53.60156 39.69922 49.80078 43 48.89844C 44.89844 48.39844 45 48.19922 43.5 48.19922C 42.39844 48.19922 40.89844 48.39844 40.30078 48.69922z" stroke="none" fill="#000000" fill-rule="nonzero" />
	<g transform="matrix(1.328125 0 0 1.328125 0 0)">
	</g>
    <path transform="matrix(1.328125 0 0 1.328125 0 0)"  d="M45.39844 50.39844C 44.5 52.80078 45.39844 56.30078 47 56.80078C 48.30078 57.30078 48.30078 57.10156 47 55.5C 45.89844 54.19922 45.80078 53.60156 46.69922 53.30078C 47.39844 53.10156 47.69922 52.30078 47.39844 51.5C 47.10156 50.80078 47.69922 50 48.69922 49.69922C 50.10156 49.30078 50 49.19922 48.19922 49.10156C 47 49.10156 45.69922 49.60156 45.39844 50.39844z" stroke="none" fill="#000000" fill-rule="nonzero" />
	<g transform="matrix(1.328125 0 0 1.328125 0 0)">
	</g>
    <path transform="matrix(1.328125 0 0 1.328125 0 0)"  d="M50.60156 51.19922C 49.5 54.89844 49.30078 56.89844 50.10156 56.39844C 50.69922 56.10156 51.80078 56.39844 52.69922 57.19922C 54.10156 58.30078 54.30078 58.30078 53.80078 56.89844C 53.39844 56 53.60156 54.80078 54.19922 54.19922C 54.80078 53.60156 55 52.39844 54.69922 51.60156C 53.89844 49.69922 51.10156 49.5 50.60156 51.19922zM54 52.5C 54 53.30078 53.60156 54 53.10156 54C 51.80078 54 50.89844 52.39844 51.69922 51.60156C 52.80078 50.5 54 51 54 52.5z" stroke="none" fill="#000000" fill-rule="nonzero" />
	<g transform="matrix(1.328125 0 0 1.328125 0 0)">
	</g>
    <path transform="matrix(1.328125 0 0 1.328125 0 0)"  d="M57.19922 52.19922C 56.69922 52.89844 55.89844 54.60156 55.5 56C 54.80078 58.30078 54.89844 58.39844 56.5 57C 58 55.69922 58.39844 55.80078 59.5 57.30078C 60.10156 58.19922 61 58.69922 61.30078 58.30078C 62.39844 57.19922 62.10156 53.5 60.80078 52.19922C 59.30078 50.69922 58.5 50.69922 57.19922 52.19922zM61 54.10156C 61 54.60156 60 55 58.89844 55C 57.10156 55 57 54.80078 58 53.5C 59.19922 52 61 52.30078 61 54.10156z" stroke="none" fill="#000000" fill-rule="nonzero" />
	<g transform="matrix(1.328125 0 0 1.328125 0 0)">
	</g>
    <path transform="matrix(1.328125 0 0 1.328125 0 0)"  d="M32.10156 56.89844C 31.19922 57.5 31.10156 58 31.89844 58.39844C 32.5 58.80078 33 58.60156 33 58.10156C 33 56.19922 34.5 56.89844 35.5 59.19922C 36.60156 61.80078 39.10156 62.19922 39.69922 60C 40.10156 58.69922 40 58.69922 39.10156 60C 38.60156 60.80078 38 61.19922 37.80078 61C 37.60156 60.69922 37 59.60156 36.39844 58.60156C 35.10156 56.19922 33.89844 55.80078 32.10156 56.89844z" stroke="none" fill="#000000" fill-rule="nonzero" />
	<g transform="matrix(1.328125 0 0 1.328125 0 0)">
	</g>
    <path transform="matrix(1.328125 0 0 1.328125 0 0)"  d="M27 58.5C 27 59.30078 27.39844 60 28 60C 28.5 60 28.69922 59.30078 28.39844 58.5C 28 57.69922 27.60156 57 27.39844 57C 27.19922 57 27 57.69922 27 58.5z" stroke="none" fill="#000000" fill-rule="nonzero" />
	<g transform="matrix(1.328125 0 0 1.328125 0 0)">
	</g>
    <path transform="matrix(1.328125 0 0 1.328125 0 0)"  d="M41 59.60156C 41 59.89844 41.69922 60.80078 42.5 61.60156C 43.80078 62.89844 44 62.89844 44 61.69922C 44 60.89844 43.30078 60 42.5 59.60156C 41.69922 59.30078 41 59.30078 41 59.60156z" stroke="none" fill="#000000" fill-rule="nonzero" />
</g>
</svg>