<svg xmlns="http://www.w3.org/2000/svg" width="35" height="35" xmlns:v="https://vecta.io/nano"><path d="M24.422 24.305h4.25c.28 0 .512-.23.512-.512s-.23-.512-.512-.512h-4.25a.51.51 0 1 0 0 1.023zm0 2.633h4.25c.28 0 .512-.23.512-.512s-.23-.516-.512-.516h-4.25a.51.51 0 1 0 0 1.027zM11.977 12.672c-2.168 0-3.93 1.766-3.93 3.934 0 .918.32 1.805.906 2.512.18.215.504.246.723.066s.246-.504.066-.723a2.91 2.91 0 0 1 2.234-4.762c1.605 0 2.906 1.3 2.906 2.906a2.91 2.91 0 0 1-2.906 2.906 2.69 2.69 0 0 1-.586-.062c-.277-.055-.55.12-.605.398a.51.51 0 0 0 .398.605c.262.055.527.082.793.082 2.168 0 3.934-1.762 3.934-3.93a3.94 3.94 0 0 0-3.934-3.934zm12.898 1.098a.51.51 0 0 0 .219-.047l3.852-1.797a.5.5 0 0 0 .297-.418c.02-.184-.066-.363-.22-.47a.51.51 0 0 0-.512-.043l-3.852 1.797c-.258.12-.367.426-.25.68.1.188.273.297.465.297zM13.55 25.11a3.35 3.35 0 0 0 3.344 3.344 3.35 3.35 0 0 0 3.348-3.344c0-1.844-1.5-3.348-3.348-3.348s-3.344 1.504-3.344 3.348zm5.664 0c0 1.277-1.04 2.32-2.32 2.32s-2.32-1.043-2.32-2.32 1.043-2.32 2.32-2.32a2.32 2.32 0 0 1 2.32 2.32zm8.867-16.25c-.12-.254-.426-.367-.684-.246L23.547 10.4a.51.51 0 0 0-.246.68c.082.18.266.297.465.297.074 0 .148-.016.215-.05l3.852-1.793c.258-.12.367-.426.25-.684zM9.37 25.9H5.12c-.285 0-.516.23-.516.516s.23.512.516.512h4.25c.28 0 .512-.23.512-.512s-.23-.516-.512-.516zm0-2.63H5.12c-.285 0-.516.23-.516.512s.23.512.516.512h4.25c.28 0 .512-.23.512-.512s-.23-.512-.512-.512zm25.422-9.383l-2.258-4.84c-.12-.258-.426-.367-.684-.25s-.367.426-.246.684l.78 1.68a5.21 5.21 0 0 0-2.176 2.527c-.402.992-.492 2.07-.262 3.098h-7.29c.38-1.258.29-2.617-.277-3.828-.61-1.305-1.687-2.293-3.04-2.785a5.35 5.35 0 0 0-4.121.18c-.363.172-.71.38-1.027.63l-.03-.012a5.94 5.94 0 0 0 .363-2.062l-.008-.32 9.44-4.406c.613 1.043 1.563 1.832 2.71 2.25a5.25 5.25 0 0 0 1.789.316c.586 0 1.168-.102 1.73-.297l.246.527c.12.258.426.367.68.25s.367-.426.25-.684l-1.72-3.687a2.2 2.2 0 0 0-1.258-1.152 2.21 2.21 0 0 0-1.699.074L14.367 7.535c-.625-2.664-3.023-4.652-5.875-4.652-3.328 0-6.035 2.707-6.035 6.035a6.03 6.03 0 0 0 1.207 3.609l-2.38 1.11a2.23 2.23 0 0 0-1.078 2.957l.676 1.45a2.22 2.22 0 0 0-.227.98v12.172a2.23 2.23 0 0 0 2.223 2.227h20.855c.285 0 .516-.23.516-.512s-.23-.516-.516-.516H6.367c-.242-2.473-2.215-4.445-4.687-4.687v-5.195c2.238-.22 4.066-1.86 4.574-4 .797 2.395 3.063 4.13 5.723 4.13l.133-.004c-.39.762-.602 1.61-.602 2.473 0 2.973 2.418 5.387 5.387 5.387s5.39-2.414 5.39-5.387a5.4 5.4 0 0 0-5.145-5.383 5.97 5.97 0 0 0 .746-1.902h9.535c.242 2.473 2.215 4.445 4.688 4.688v5.195c-2.473.242-4.445 2.215-4.687 4.688h-.62c-.28 0-.512.23-.512.516s.23.512.512.512h4.11a2.23 2.23 0 0 0 2.227-2.227V19.02c0-.617-.258-1.18-.668-1.582l1.246-.582c1.113-.52 1.594-1.844 1.074-2.957zM27.125 2.72a1.19 1.19 0 0 1 .918-.043 1.2 1.2 0 0 1 .676.621l1.035 2.227c-.887.293-1.84.277-2.73-.047s-1.633-.926-2.125-1.72zM1.68 28.742c1.906.23 3.422 1.746 3.656 3.652H2.88c-.66 0-1.2-.54-1.2-1.2zm-.06-11.55l-.484-1.03c-.277-.602-.016-1.316.582-1.594l2.227-1.04c.352 1.082.25 2.258-.29 3.27H2.88a2.2 2.2 0 0 0-1.262.395zm.06 4.285v-2.453a1.2 1.2 0 0 1 1.199-1.199h2.457a4.21 4.21 0 0 1-3.656 3.652zm4.266-4.87v.19h-1.16a5.18 5.18 0 0 0 .309-2.895c.38.258.785.473 1.215.64a5.9 5.9 0 0 0-.363 2.063zm-2.46-7.687C3.484 6.156 5.73 3.9 8.492 3.9c2.57 0 4.695 1.945 4.977 4.44a4.64 4.64 0 0 1 .035.566 5 5 0 0 1-.324 1.773c-.37-.074-.742-.117-1.12-.12.242-.516.367-1.082.367-1.652 0-2.168-1.766-3.93-3.934-3.93s-3.93 1.762-3.93 3.93c0 1.78 1.195 3.293 2.828 3.773-.246.285-.46.594-.648.918-1.937-.723-3.258-2.598-3.258-4.69zm7.914 0a2.92 2.92 0 0 1-.598 1.77 6.02 6.02 0 0 0-2.492 1.129 2.91 2.91 0 0 1-2.723-2.898 2.91 2.91 0 0 1 2.906-2.906 2.91 2.91 0 0 1 2.906 2.906zm.582 12.695a5.02 5.02 0 0 1-5.012-5.008 5.02 5.02 0 0 1 5.012-5.012 5.02 5.02 0 0 1 5.008 5.012c0 2.762-2.246 5.008-5.008 5.008zm9.277 3.496a4.37 4.37 0 0 1-4.359 4.363 4.37 4.37 0 0 1-4.363-4.363 4.36 4.36 0 0 1 .895-2.648 6.03 6.03 0 0 0 2.898-1.676c.19-.027.383-.04.57-.04a4.37 4.37 0 0 1 4.359 4.363zm-2.03-8.312h-1.22l.004-.195c.004-1.29-.4-2.543-1.18-3.578.477-.145.984-.133 1.46.043.582.21 1.047.637 1.31 1.2.398.848.242 1.844-.375 2.53zm2.352 0h-1.113c.477-.906.52-2 .066-2.965-.37-.81-1.05-1.43-1.887-1.73s-1.734-.266-2.54.102c-.27-.254-.562-.48-.875-.684l.426-.23c1.06-.492 2.242-.543 3.336-.145a4.32 4.32 0 0 1 2.461 2.258c.504 1.074.543 2.293.12 3.395zm10.535 14.398c0 .66-.54 1.2-1.2 1.2h-2.457c.234-1.906 1.75-3.422 3.656-3.656zm0-9.72c-1.906-.234-3.422-1.75-3.656-3.656h2.457a1.2 1.2 0 0 1 1.195 1.199v2.457zm1.168-5.55l-1.953.9a2.17 2.17 0 0 0-.32-.035c-.5-1.785.254-3.715 1.816-4.69l1.04 2.223a1.2 1.2 0 0 1-.582 1.594zm0 0" fill="#08c"/></svg>