<svg xmlns="http://www.w3.org/2000/svg" width="35" height="35" fill="#4a90d6" xmlns:v="https://vecta.io/nano"><path d="M6.738 6.465l-1.246-.56A1.78 1.78 0 0 1 4.6 5l-.562-1.246c-.082-.184-.266-.305-.465-.305a.52.52 0 0 0-.47.305L2.535 5c-.18.402-.5.723-.902.906l-1.25.56a.51.51 0 0 0-.301.465.51.51 0 0 0 .301.469l1.25.56a1.79 1.79 0 0 1 .902.906l.56 1.246a.51.51 0 0 0 .469.301.51.51 0 0 0 .465-.301l.57-1.25a1.79 1.79 0 0 1 .902-.906l1.246-.56c.184-.082.305-.266.305-.47s-.12-.383-.305-.465zm-1.668.56a2.82 2.82 0 0 0-1.418 1.418l-.1.203-.094-.203A2.79 2.79 0 0 0 2.04 7.025l-.203-.094.203-.1a2.8 2.8 0 0 0 1.418-1.418l.094-.203.1.203A2.83 2.83 0 0 0 5.07 6.831l.207.1zM33.754 28.93l-1.246-.56c-.402-.18-.723-.5-.902-.902l-.562-1.246a.51.51 0 0 0-.934 0l-.56 1.246c-.18.402-.5.723-.902.902l-1.25.56a.51.51 0 0 0-.301.469.51.51 0 0 0 .301.469l1.25.56c.402.18.723.5.902.902l.56 1.246a.51.51 0 0 0 .469.305c.2 0 .383-.117.465-.305l.563-1.246c.18-.402.5-.723.902-.902l1.246-.56c.184-.082.305-.266.305-.47s-.12-.387-.305-.47zm-1.668.56a2.84 2.84 0 0 0-1.418 1.422l-.1.203-.094-.203a2.81 2.81 0 0 0-1.418-1.422l-.203-.1.203-.1a2.81 2.81 0 0 0 1.418-1.422l.094-.203.1.203a2.84 2.84 0 0 0 1.418 1.422l.207.1zm0 0"/><path d="M22.94 2.684l-1.1-.5c-.344-.152-.62-.43-.773-.773L20.563.305C20.477.117 20.297 0 20.094 0a.51.51 0 0 0-.469.305L19.13 1.4a1.54 1.54 0 0 1-.773.773l-1.1.5a.51.51 0 0 0-.301.465.51.51 0 0 0 .301.469l1.1.496a1.55 1.55 0 0 1 .773.773l.496 1.1c.082.184.266.305.47.305a.52.52 0 0 0 .469-.305l.496-1.1a1.54 1.54 0 0 1 .773-.773l1.1-.496a.51.51 0 0 0 .301-.469.51.51 0 0 0-.301-.465zm-1.527.496a2.55 2.55 0 0 0-1.293 1.289l-.027.066-.03-.066c-.254-.574-.715-1.03-1.3-1.3l-.062-.03.063-.027a2.55 2.55 0 0 0 1.29-1.29l.03-.066.027.066a2.55 2.55 0 0 0 1.293 1.289l.063.027zm12.88.16L31.72.766c-.863-.863-2.266-.863-3.13 0-.2.2-.2.523 0 .727s.527.2.727 0a1.18 1.18 0 0 1 1.676 0l2.578 2.574a1.19 1.19 0 0 1 0 1.676L31.703 7.6 27.45 3.355l.37-.37a.51.51 0 0 0 0-.723c-.2-.2-.523-.2-.727 0L20.1 9.254c-.328-.13-.66-.242-1-.336l-.387-2.73a.51.51 0 0 0-.508-.441h-3.75c-.254 0-.47.188-.508.44l-.387 2.73a9.89 9.89 0 0 0-2.215.918L9.14 8.18a.51.51 0 0 0-.668.047L5.82 10.88a.51.51 0 0 0-.047.668l1.656 2.207a9.89 9.89 0 0 0-.918 2.215l-2.73.4a.51.51 0 0 0-.441.504v3.75a.51.51 0 0 0 .441.508l2.73.387a10.39 10.39 0 0 0 .336 1l-3.92 3.92a.55.55 0 0 0-.137.246l-1.43 4.05h-.004L.1 34.316c-.066.188-.02.395.12.535.098.098.227.148.36.148.06 0 .117-.008.172-.03l7.645-2.7a.54.54 0 0 0 .242-.137l3.918-3.918 1.016.348.387 2.73c.04.254.254.44.508.44h3.75a.51.51 0 0 0 .508-.441l.387-2.73a10.3 10.3 0 0 0 2.219-.918l2.203 1.656c.207.152.492.133.672-.047L26.86 26.6c.18-.18.2-.465.047-.672l-1.656-2.203a10.3 10.3 0 0 0 .918-2.219l2.73-.387a.51.51 0 0 0 .441-.508v-3.75c0-.254-.187-.47-.44-.508l-2.73-.387a10.4 10.4 0 0 0-.348-1.016l8.484-8.484c.863-.863.863-2.266 0-3.13zm-32.88 30.3l.64-1.812L3.22 33zm2.883-1.02L2.43 30.766l1.074-3.03 3.82 3.824zM28.3 17.3v2.86l-2.625.375a.51.51 0 0 0-.426.387 9.13 9.13 0 0 1-1.066 2.566c-.105.18-.098.406.03.574l1.594 2.12-2.023 2.023-2.12-1.594a.51.51 0 0 0-.574-.03 9.13 9.13 0 0 1-2.566 1.066.51.51 0 0 0-.387.426l-.375 2.625h-2.86l-.37-2.625a.52.52 0 0 0-.387-.426l-.8-.238 2.8-2.8.188.004a5.89 5.89 0 0 0 5.883-5.883l-.016-.422-.027-.273c-.328-2.78-2.605-4.973-5.426-5.168l-.414-.016a5.89 5.89 0 0 0-5.88 5.88v.164l-.824.828c-.078.098-.117.2-.117.324a.51.51 0 0 0 .152.363c.012.012.023.023.04.035a.51.51 0 0 0 .516.078.49.49 0 0 0 .168-.113l6.504-6.5a4.87 4.87 0 0 1 4.262 4.242l-1.602 1.602a.51.51 0 0 0 0 .727c.098.102.23.148.36.148a.5.5 0 0 0 .363-.148l.828-.828a4.87 4.87 0 0 1-3.848 3.848l1.566-1.562c.2-.203.2-.527 0-.727s-.527-.2-.727 0L8.266 31.05l-4.254-4.254 4.922-4.918a.55.55 0 0 0 .113-.172c.027-.062.035-.125.035-.2 0-.133-.047-.262-.148-.363a.55.55 0 0 0-.172-.113.51.51 0 0 0-.473.047l-.082.066-.56.563-.23-.78a.51.51 0 0 0-.426-.387l-2.63-.375v-2.86l2.63-.37a.52.52 0 0 0 .426-.387 9.12 9.12 0 0 1 1.062-2.566.51.51 0 0 0-.027-.574L6.86 11.3l2.023-2.023 2.12 1.594c.164.125.395.137.57.027a9.19 9.19 0 0 1 2.57-1.062.52.52 0 0 0 .387-.426l.37-2.625h2.86l.375 2.625a.51.51 0 0 0 .383.426 9.31 9.31 0 0 1 1.492.504l.28.13.262.133.07.035.2.105.273.156a.54.54 0 0 0 .141.059.51.51 0 0 0 .434-.086l2.12-1.594 2.023 2.023-1.594 2.12a.5.5 0 0 0-.105.281.52.52 0 0 0 .074.293l.156.27.102.184.04.074.125.246.13.28a9.32 9.32 0 0 1 .516 1.512.52.52 0 0 0 .426.387zm-12.92-3.333l-3.8 3.8a4.87 4.87 0 0 1 3.809-3.809zm9.973-.016l-.113-.207 1.656-2.207a.51.51 0 0 0-.047-.668l-2.652-2.652c-.18-.18-.465-.2-.672-.047L21.32 9.836l-.227-.125 2.938-2.938 4.254 4.254zm3.66-3.66L24.76 6.05l1.97-1.97 4.25 4.254zm0 0"/></svg>