<svg xmlns="http://www.w3.org/2000/svg" width="35" height="35" fill="#08c" xmlns:v="https://vecta.io/nano"><path d="M18.086 15.656a5.61 5.61 0 0 0-5.125-5.586c-2.898-.25-5.508 1.762-6.004 4.63s1.277 5.637 4.1 6.38v1.746h-2.03c-1.57 0-1.96 1.168-2.168 1.793-.035.113-.074.223-.125.332-.477.293-.9.434-1.328.434h-.543v-.992c0-.234-.187-.426-.422-.426H.563c-.23 0-.422.2-.422.426v9.887c0 .234.2.422.422.422H4.43a.42.42 0 0 0 .422-.422v-.832h.47a5.62 5.62 0 0 1 2.95.84c1.04.648 2.2.7 3.395.7h3.145c.56.004 1.07-.305 1.328-.8a1.49 1.49 0 0 0-.094-1.543c.414-.234.695-.652.75-1.125s-.1-.945-.457-1.27a1.54 1.54 0 0 0 .02-2.191 1.43 1.43 0 0 0 .402-1.414c-.138-.512-.54-.898-1.05-1.02.754-.38 1.22-1.223 1.22-2.332v-.04c0-.234-.187-.426-.422-.426H13.9V21.08a5.63 5.63 0 0 0 4.176-5.422zm-5.023 9.922h-1.168V21.23c.4.043.78.043 1.168 0zM7.72 15.656a4.76 4.76 0 1 1 5.739 4.661 4.76 4.76 0 0 1-5.739-4.66zm-3.715 18.2H.988v-9.043h3.016zm11.957-6.844a.59.59 0 0 1-.59.586h-.93c-.02 0-.04.004-.06.004h-.602c-.234 0-.422.2-.422.426a.42.42 0 0 0 .422.422h1.488a.69.69 0 0 1 .684.691c0 .38-.305.688-.684.688H13.78c-.234 0-.422.2-.422.426a.42.42 0 0 0 .422.422h1.52a.65.65 0 0 1 .574.328c.117.208.12.457 0 .66a.65.65 0 0 1-.574.324h-2.2c-.234 0-.422.2-.422.426a.42.42 0 0 0 .422.422h1.7a.65.65 0 0 1 .57.324.64.64 0 0 1 0 .656c-.117.203-.336.324-.57.324h-3.145c-1.066 0-2.098-.047-2.95-.574-1.02-.633-2.195-.965-3.395-.965h-.47v-6.37h.543c.6 0 1.18-.2 1.8-.582.246-.156.34-.437.45-.762.234-.7.473-1.215 1.363-1.215h2.03v1.47c-.062-.2-.273-.34-.488-.297a.42.42 0 0 0-.336.46c.07.637.605 1.12 1.25 1.12h3.898a.59.59 0 0 1 .59.586zm.094-3.34c-.074.535-.348 1.316-1.3 1.316H13.9v-1.316zm18.366-9.758H30.56c-.234 0-.426.2-.426.422v.996H29.6c-.418 0-.852-.14-1.328-.434l-.125-.332c-.207-.625-.598-1.793-2.168-1.793h-2.03v-1.746a5.61 5.61 0 0 0 4.129-6.145C27.703 2.1 25.324 0 22.508 0s-5.2 2.1-5.56 4.883a5.62 5.62 0 0 0 4.13 6.145v1.746H18.48c-.234 0-.422.2-.422.422v.043c0 1.1.465 1.953 1.223 2.328a1.44 1.44 0 0 0-1.055 1.023 1.43 1.43 0 0 0 .406 1.41c-.293.293-.457.688-.453 1.102s.172.805.47 1.1c-.344.328-.516.8-.457 1.273s.336.887.75 1.12a1.5 1.5 0 0 0-.094 1.547c.262.492.77.8 1.328.8h3.145c1.195 0 2.355-.05 3.395-.7a5.63 5.63 0 0 1 2.949-.84h.47v.832c0 .234.2.422.426.422h3.863a.42.42 0 0 0 .422-.422v-9.9c0-.23-.187-.422-.422-.422zM22.508 11.2a5.75 5.75 0 0 0 .582-.031v4.348h-1.168V11.18l.586.03zm-4.762-5.605A4.76 4.76 0 0 1 22.18.859c2.496-.172 4.695 1.613 5.04 4.094a4.75 4.75 0 0 1-3.734 5.309c-1.402.297-2.863-.06-3.977-.96a4.76 4.76 0 0 1-1.762-3.695zm3.328 8.016v1.316h-.84c-.957 0-1.227-.78-1.305-1.316zm8.6 8.926a6.44 6.44 0 0 0-3.395.969c-.852.527-1.88.574-2.95.574h-3.145c-.234 0-.453-.125-.57-.324s-.117-.453 0-.656a.65.65 0 0 1 .57-.324h1.7c.234 0 .422-.2.422-.426a.42.42 0 0 0-.422-.422h-2.2a.65.65 0 0 1-.574-.984c.12-.203.336-.332.574-.328h1.52c.234 0 .422-.2.422-.422s-.187-.426-.422-.426h-1.488a.69.69 0 0 1-.68-.687.69.69 0 0 1 .68-.691h1.488a.42.42 0 0 0 .422-.422c0-.234-.187-.426-.422-.426h-.598c-.02 0-.043-.004-.062-.004h-.93a.59.59 0 0 1-.582-.586.59.59 0 0 1 .582-.586h3.902c.64 0 1.18-.484 1.246-1.12a.42.42 0 0 0-.336-.461c-.215-.043-.426.086-.488.293V13.62h2.03c.895 0 1.13.504 1.367 1.215.1.324.203.605.45.762.625.4 1.215.582 1.805.582h.543v6.367zM34 23.805h-3.02v-9.043H34zm0 0"/><path d="M12.047 17.422l2.93-2.93c.1-.1.152-.266.113-.4a.45.45 0 0 0-.3-.3c-.144-.038-.305.004-.4.1l-2.633 2.633-1.168-1.164a.42.42 0 0 0-.41-.117c-.148.04-.262.156-.3.305s.004.305.113.4l1.465 1.465a.43.43 0 0 0 .602 0zm11.68-9.996c.168.164.434.16.598-.004a.42.42 0 0 0 0-.594l-1.22-1.223 1.22-1.223a.42.42 0 0 0 0-.594c-.164-.164-.43-.168-.598-.004l-1.22 1.223-1.223-1.223c-.105-.1-.262-.148-.4-.113s-.262.156-.3.3a.42.42 0 0 0 .113.41L21.9 5.605l-1.223 1.223c-.1.105-.152.262-.113.406a.43.43 0 0 0 .301.305c.148.035.305-.004.4-.113l1.223-1.223zm0 0"/></svg>