<svg xmlns="http://www.w3.org/2000/svg" width="35" height="35" fill="#08c" xmlns:v="https://vecta.io/nano"><path d="M32.102 29.285c-.145-.16-.344-.32-.605-.477-.04-.027-.148-.1-.32-.187l-.422-.254c-.102-.07-.238-.19-.4-.367a2.3 2.3 0 0 1-.398-.559c-.098-.195-.19-.457-.285-.79a4.96 4.96 0 0 1-.156-1.105c-.18.156-.28.465-.3.93s.078.934.293 1.414.535.793.965.938c.418.14.75.297 1.008.457.25.164.414.348.484.56s-.047.43-.36.672-.812.477-1.504.71c-.95.328-1.62.605-2.02.832s-.977.66-1.746 1.297c-.52.43-1.074.66-1.66.69a1.59 1.59 0 0 1-1.422-.641c-.367-.465-.484-1.117-.352-1.965.246-1.625.238-2.895-.02-3.805-.21-.715-.254-1.348-.137-1.89s.297-.867.547-.957.512.102.797.586l.176.38a2.66 2.66 0 0 0 .227.398c.06.078.145.18.262.305s.266.21.44.266a2.7 2.7 0 0 0 .613.094c.44.016.84-.078 1.19-.273s.613-.4.79-.652l.527-.69c.176-.223.328-.348.46-.37.14-.027.27-.172.387-.43s.195-.62.234-1.082.008-1.012-.094-1.652c-.195-1.133-.586-2.375-1.164-3.727s-1.227-2.414-1.94-3.18c-1.29-1.367-2.152-2.785-2.594-4.258-.457-1.547-.652-2.937-.586-4.176.063-.883-.13-1.844-.578-2.88s-1.043-1.824-1.785-2.37c-.47-.352-1.047-.62-1.734-.81S17.527-.012 16.84 0c-.848 0-1.523.137-2.03.4-1.04.563-1.73 1.242-2.066 2.04s-.496 1.79-.47 2.957l.313 6.05c-.184.676-.988 1.945-2.422 3.805-.258.262-.512.613-.762 1.055l-.586 1.19-.574 1.523-.516 1.402c-.094.234-.234.508-.43.82s-.352.62-.47.918a3.03 3.03 0 0 0-.195 1.016c-.012.285 0 .53.04.742.05.313.148.4.293.293.586-.445 1.32-.184 2.203.78.625.676 1.727 2.25 3.3 4.723l.39.71c.13.254.254.594.37 1.016s.164.805.145 1.14-.168.652-.45.938-.7.47-1.258.547c-.3.04-.66.012-1.082-.078s-.96-.242-1.613-.45l-1.44-.43-1.94-.398-1.652-.363c-.44-.117-.68-.285-.72-.508-.04-.18.05-.492.27-.934s.332-.762.332-.957c.016-.145.008-.285-.02-.43s-.055-.254-.086-.332-.1-.195-.168-.352l-.156-.352c-.23-.547-.266-.918-.094-1.113.113-.168.395-.234.836-.195.664.066 1.203-.03 1.62-.293.69-.43.898-1.117.625-2.066 0 .44-.078.773-.234.992s-.43.45-.82.684c-.223.133-.61.21-1.172.234s-.93.117-1.11.273c-.133.117-.2.293-.207.527s.023.473.1.715l.195.828c.063.313.1.574.078.78-.016.14-.133.496-.352 1.063s-.27 1-.137 1.297c.063.145.176.273.332.383s.37.203.652.28l.77.188.977.176.996.184c.832.168 1.78.45 2.848.84s1.79.6 2.168.605a2.16 2.16 0 0 0 1.043-.227 3.73 3.73 0 0 0 .852-.555c.23-.207.582-.402 1.043-.586s.977-.28 1.55-.293l1.133-.047 1.113-.03 2.535.02c.39.012.695.074.918.188s.363.234.43.38.172.31.32.496a1.69 1.69 0 0 0 .578.461c.492.234 1.07.328 1.734.28s1.105-.172 1.328-.38a18.63 18.63 0 0 1 1.473-1.25c.617-.48 1.176-.844 1.668-1.094l1.152-.555.613-.324c.242-.13.438-.25.586-.36s.305-.238.46-.383.258-.285.3-.43.063-.29.05-.437-.094-.305-.234-.47zM21.64 10.422c.04-.023.063-.035.078-.027s.04.03.078.078l.105.125.137.156a.83.83 0 0 0 .184.156c.082.05.176.1.285.11s.195.05.254.098.102.117.125.223c.027.145.004.273-.066.39s-.164.168-.28.156c-.234-.05-.488-.258-.762-.613s-.32-.645-.137-.852zM19.22 2.84c.066-.082.105-.152.117-.203.027-.078.03-.16.012-.246a.41.41 0 0 1 .02-.254c.03-.082.105-.133.223-.145.117 0 .273.098.47.293l.184.117c.086.05.145.098.176.137s.05.07.05.098c-.027.063-.086.11-.176.137s-.187.04-.293.04-.164.004-.176.02c-.105.04-.203.098-.293.176l-.215.176c-.05.04-.105.04-.156 0-.05-.078-.07-.137-.06-.168s.055-.1.117-.176zM9.773 17.45a2.04 2.04 0 0 0 .195-.254c.04-.066.074-.152.105-.262l.1-.246c.027-.05.066-.07.117-.06.027-.008.043.008.06.04l.02.05v.06c0 .02-.004.043-.012.078s-.016.06-.027.086-.027.066-.04.117-.027.098-.04.137a.96.96 0 0 1-.246.352c-.11.105-.19.148-.242.137-.078-.027-.07-.105.02-.234zm12.762 12.043c-.023.414-.113 1-.262 1.754l-.285 1.504c-.273-.012-.426-.113-.465-.3s0-.434.117-.734c.285-.87.434-1.47.445-1.797.027-.598-.04-.934-.19-1.012-.145-.105-.367.1-.664.586-.574.934-1.727 1.5-3.457 1.695-1.56.21-2.64-.023-3.238-.703-.13-.1-.262-.105-.39-.047s-.215.12-.254.184c-.012.027 0 .066.04.117s.102.13.188.234a1.77 1.77 0 0 1 .203.313c.508.887.46 1.484-.137 1.797 0-.598-.047-1.06-.137-1.375s-.273-.672-.547-1.055l-.566-.867c.39-.04.688-.19.89-.45s.293-.543.273-.84a1.08 1.08 0 0 0-.344-.742c-.117-.117-.723-.617-1.816-1.492L9.9 24.496c-.05-.055-.207-.184-.47-.39s-.422-.39-.488-.547c-.598-1.316-.664-2.395-.195-3.242l.078-.098c.066-.012.07.105.02.352a3.84 3.84 0 0 0-.078 1.094c.05.82.285 1.434.703 1.836.273.273.46.254.566-.06.078-.105.113-.488.105-1.152l.03-1.348c.102-.742.414-1.66.926-2.75s.922-1.68 1.22-1.758a1.65 1.65 0 0 1-.223-1.23c.086-.44.223-.82.4-1.13a12.95 12.95 0 0 0 .574-1.086c.195-.4.293-.777.293-1.102 0-.1.008-.156.02-.195.04-.117.203.027.488.43.547.805.957 1.28 1.23 1.426.285.156.605.148.957-.02s.78-.45 1.297-.84.953-.676 1.316-.86c.04-.012.102-.043.188-.086a1.78 1.78 0 0 1 .195-.098l.176-.1.164-.098.117-.086c.04-.035.063-.066.078-.098s.02-.062.02-.1c-.027-.117-.082-.187-.168-.215s-.195-.008-.34.05-.305.137-.48.234l-.582.332-.656.34a5.16 5.16 0 0 1-.703.273 2.83 2.83 0 0 1-.699.137c-.547.012-.984-.13-1.31-.43-.207-.195-.32-.32-.332-.37s.047-.066.176-.04c.703.1 1.215.105 1.543.04.336-.05.793-.203 1.363-.45l.89-.38 1.102-.422c.156-.04.266-.098.324-.184s.078-.164.055-.234c-.016-.07-.06-.13-.125-.168-.145-.078-.273-.023-.39.156-.066.117-.203.234-.4.344a3.88 3.88 0 0 1-.574.254l-.676.203-.45.137c-.715.223-1.38.32-1.988.293-.285-.012-.52-.055-.69-.125s-.297-.156-.363-.254a2.85 2.85 0 0 0-.312-.371c-.145-.152-.305-.277-.488-.383-.13-.062-.18-.18-.145-.352s.133-.344.3-.523c.016-.016.148-.098.402-.246s.43-.3.535-.457c.117-.184.32-.37.605-.566a2.91 2.91 0 0 0 .027-.43c.008-.234-.055-.488-.184-.762s-.305-.4-.527-.4c-.312-.012-.535.078-.664.273s-.187.438-.176.723c.016.246.074.465.188.652s.21.285.3.285c.145-.016.188.04.137.156-.078.14-.184.234-.312.273-.1.023-.19-.062-.3-.266s-.195-.445-.254-.73-.082-.527-.07-.723c.027-.402.133-.79.324-1.16s.457-.55.81-.54c.363.016.656.234.88.664s.324 1.016.313 1.758c.04.1.14.12.3.098s.38-.03.645-.012.46.1.574.207c.016 0 .023-.098.023-.293-.234-1.64.344-2.512 1.734-2.617a2.79 2.79 0 0 1 .527.148c.145.06.297.156.457.293s.3.332.4.594.2.586.266.977v.723c0 .414-.086.648-.254.703-.273.1-.47.086-.586-.012s-.105-.27.04-.516c.13-.328.105-.703-.078-1.133s-.516-.625-.996-.586c-.324.012-.56.188-.703.527s-.195.668-.156.996.113.492.215.508c.078.012.31.117.695.313s.672.31.867.348c.508.105.797.27.867.488s.043.543-.086.97-.168.77-.117 1.043c.05.285.148.547.293.78a5.89 5.89 0 0 0 .457.645c.164.195.355.56.578 1.094s.422 1.203.605 2.008l.145.137c.086.078.168.176.254.293s.188.277.305.477.242.5.38.89.262.84.38 1.348c.145.598.22 1.293.227 2.086s.06 1.336.156 1.63.348.414.75.363c.508-.027.836-.3.977-.82.43-1.508.078-3.316-1.055-5.426-.43-.82-.8-1.36-1.113-1.62.457.262.926.75 1.406 1.465s.79 1.387.918 2.012l.105.516.098.488.078.398.07.43a4.9 4.9 0 0 0 .02.383 1.87 1.87 0 0 1-.012.438l-.06.422a3.07 3.07 0 0 1-.098.508l-.145.535c.715.313 1.074.586 1.074.82-.273-.223-.664-.367-1.172-.437s-.98-.004-1.414.203-.66.555-.676 1.035c-.47 0-.8.117-.996.352-.285.336-.434.797-.445 1.375s.035 1.21.145 1.89.152 1.164.125 1.438zM14.36 6.87c-.04-.012-.07-.05-.098-.117a.12.12 0 0 1 .176-.137c.078.027.152.125.227.293s.086.363.047.586c0 .04-.02.06-.06.06-.145 0-.195-.133-.156-.39.04-.195-.008-.293-.137-.293zm5.055.313l-.04.06c-.102.063-.156.078-.156.04-.05-.352-.168-.555-.352-.605l-.078-.04c-.1-.078-.043-.125.137-.137.04-.012.098.008.176.06s.152.133.215.242.098.238.098.383zm0 0"/><path d="M14.867 8.316c0 .078.03.1.098.098.05 0 .105-.062.164-.187s.16-.2.305-.203h-.195c-.246.04-.37.137-.37.293zm1.7-.234c.13-.04.242-.012.34.086s.172.14.227.13c.078-.04.098-.098.06-.176-.105-.172-.312-.184-.625-.04zm0 0"/></svg>