<svg xmlns="http://www.w3.org/2000/svg" width="35" height="35" fill="#08c" xmlns:v="https://vecta.io/nano"><path d="M17.5 0C10.75 0 5.262 5.492 5.262 12.238c0 2.48.633 5.098 1.88 7.777.988 2.125 2.363 4.293 4.086 6.45 2.926 3.66 5.8 5.98 5.93 6.078.102.078.223.117.344.117a.57.57 0 0 0 .344-.117c.12-.098 3.004-2.418 5.93-6.078 1.723-2.156 3.098-4.324 4.086-6.45 1.246-2.68 1.88-5.297 1.88-7.777C29.738 5.492 24.25 0 17.5 0zm9.37 19.54c-.945 2.043-2.273 4.137-3.937 6.223a43.02 43.02 0 0 1-5.434 5.637 43.02 43.02 0 0 1-5.434-5.637c-1.664-2.086-2.992-4.18-3.937-6.223-1.176-2.527-1.773-4.984-1.773-7.3 0-6.145 5-11.14 11.145-11.14s11.145 4.996 11.145 11.14c0 2.316-.598 4.773-1.773 7.3zM17.5 2.922a9.33 9.33 0 0 0-9.316 9.316 9.33 9.33 0 0 0 9.316 9.316 9.33 9.33 0 0 0 9.316-9.316A9.33 9.33 0 0 0 17.5 2.922zm0 17.54c-4.53 0-8.22-3.687-8.22-8.223A8.23 8.23 0 0 1 17.5 4.02a8.23 8.23 0 0 1 8.219 8.219c0 4.535-3.687 8.223-8.22 8.223zm0-4.1c-.3 0-.55.246-.55.55s.25.55.55.55.55-.25.55-.55-.25-.55-.55-.55zm2.44-8.32c-.664-.664-1.53-1.027-2.44-1.027-1.914 0-3.473 1.555-3.473 3.47a.55.55 0 0 0 .551.551.55.55 0 0 0 .547-.551A2.38 2.38 0 0 1 17.5 8.109c.617 0 1.2.254 1.668.7a2.34 2.34 0 0 1 .707 1.664 2.39 2.39 0 0 1-1.69 2.277 1.7 1.7 0 0 0-1.23 1.641v.176a.55.55 0 0 0 .547.547.55.55 0 0 0 .547-.547V14.4c0-.273.184-.512.453-.594a3.49 3.49 0 0 0 2.473-3.324c0-.9-.367-1.777-1.03-2.44zm1.654 25.86h-8.187a.55.55 0 0 0-.547.551.55.55 0 0 0 .547.547h8.188a.55.55 0 0 0 .547-.547.55.55 0 0 0-.547-.551zm0 0"/></svg>