<?xml version="1.0" encoding="UTF-8"?>
<svg xmlns="http://www.w3.org/2000/svg" xmlns:xlink="http://www.w3.org/1999/xlink" width="35pt" height="35pt" viewBox="0 0 35 35" version="1.1">
<g id="surface1">
<path style=" stroke:none;fill-rule:nonzero;fill:rgb(0%,0%,0%);fill-opacity:1;" d="M 33.289062 2.945312 L 1.707031 2.945312 C 0.765625 2.945312 0 3.710938 0 4.65625 L 0 24.261719 C 0 25.203125 0.765625 25.972656 1.707031 25.972656 L 13.546875 25.972656 L 13.320312 27.75 L 12.316406 27.75 C 11.773438 27.75 11.292969 28.117188 11.148438 28.644531 L 10.558594 30.824219 C 10.476562 31.121094 10.539062 31.429688 10.722656 31.671875 C 10.90625 31.914062 11.195312 32.054688 11.496094 32.054688 L 23.503906 32.054688 C 23.808594 32.058594 24.097656 31.917969 24.28125 31.675781 C 24.464844 31.433594 24.527344 31.117188 24.445312 30.824219 L 23.851562 28.640625 C 23.707031 28.113281 23.230469 27.75 22.683594 27.746094 L 21.679688 27.746094 L 21.453125 25.96875 L 33.292969 25.96875 C 34.234375 25.96875 35 25.203125 35 24.261719 L 35 4.65625 C 35 3.710938 34.234375 2.945312 33.292969 2.945312 Z M 22.679688 28.773438 C 22.765625 28.773438 22.839844 28.828125 22.863281 28.910156 L 23.4375 31.027344 L 11.5625 31.027344 L 12.136719 28.910156 C 12.160156 28.832031 12.234375 28.773438 12.316406 28.773438 L 13.765625 28.773438 C 13.769531 28.773438 13.769531 28.773438 13.773438 28.773438 C 13.773438 28.773438 13.777344 28.773438 13.777344 28.773438 L 21.222656 28.773438 C 21.226562 28.773438 21.226562 28.773438 21.230469 28.773438 C 21.230469 28.773438 21.230469 28.773438 21.234375 28.773438 L 22.683594 28.773438 Z M 14.351562 27.746094 L 14.582031 25.96875 L 20.417969 25.96875 L 20.644531 27.746094 Z M 33.972656 24.261719 C 33.972656 24.640625 33.667969 24.945312 33.289062 24.945312 L 20.859375 24.945312 C 20.859375 24.945312 20.855469 24.945312 20.855469 24.945312 L 1.707031 24.945312 C 1.332031 24.945312 1.023438 24.640625 1.023438 24.261719 L 1.023438 4.65625 C 1.023438 4.277344 1.332031 3.972656 1.707031 3.972656 L 33.289062 3.972656 C 33.667969 3.972656 33.972656 4.277344 33.972656 4.65625 Z M 14.453125 12.667969 C 14.210938 12.527344 13.894531 12.609375 13.753906 12.855469 C 13.628906 13.070312 13.398438 13.207031 13.144531 13.207031 C 12.894531 13.207031 12.664062 13.070312 12.539062 12.855469 C 12.394531 12.613281 12.082031 12.527344 11.839844 12.667969 C 11.59375 12.808594 11.511719 13.121094 11.648438 13.367188 C 11.957031 13.902344 12.527344 14.230469 13.144531 14.234375 C 13.761719 14.234375 14.335938 13.902344 14.644531 13.367188 C 14.785156 13.121094 14.699219 12.808594 14.453125 12.667969 Z M 23.164062 12.667969 C 22.917969 12.527344 22.601562 12.609375 22.460938 12.855469 C 22.335938 13.074219 22.105469 13.207031 21.855469 13.207031 C 21.601562 13.207031 21.371094 13.074219 21.246094 12.855469 C 21.101562 12.613281 20.792969 12.527344 20.546875 12.667969 C 20.300781 12.808594 20.21875 13.121094 20.355469 13.367188 C 20.664062 13.902344 21.234375 14.230469 21.855469 14.234375 C 22.46875 14.234375 23.042969 13.902344 23.351562 13.367188 C 23.492188 13.121094 23.40625 12.808594 23.164062 12.667969 Z M 18.675781 13.234375 L 16.324219 13.234375 C 16.042969 13.234375 15.8125 13.464844 15.8125 13.746094 L 15.8125 14.628906 C 15.8125 15.558594 16.570312 16.316406 17.5 16.316406 C 18.429688 16.316406 19.1875 15.558594 19.1875 14.628906 L 19.1875 13.746094 C 19.1875 13.464844 18.957031 13.234375 18.675781 13.234375 Z M 17.5 15.292969 C 17.132812 15.292969 16.835938 14.996094 16.835938 14.628906 L 16.835938 14.261719 L 18.164062 14.261719 L 18.164062 14.628906 C 18.164062 14.996094 17.867188 15.292969 17.5 15.292969 Z M 22.242188 14.757812 L 21.464844 14.757812 C 21.183594 14.757812 20.953125 14.988281 20.953125 15.269531 C 20.953125 15.554688 21.183594 15.785156 21.464844 15.785156 L 22.242188 15.785156 C 22.523438 15.785156 22.753906 15.554688 22.753906 15.269531 C 22.753906 14.988281 22.523438 14.757812 22.242188 14.757812 Z M 13.535156 14.757812 L 12.757812 14.757812 C 12.476562 14.757812 12.246094 14.988281 12.246094 15.269531 C 12.246094 15.554688 12.476562 15.785156 12.757812 15.785156 L 13.535156 15.785156 C 13.816406 15.785156 14.046875 15.554688 14.046875 15.269531 C 14.046875 14.988281 13.816406 14.757812 13.535156 14.757812 Z M 32.09375 5.339844 L 2.90625 5.339844 C 2.621094 5.339844 2.390625 5.566406 2.390625 5.851562 L 2.390625 23.066406 C 2.390625 23.347656 2.621094 23.578125 2.90625 23.578125 L 25.941406 23.578125 C 26.226562 23.578125 26.453125 23.347656 26.453125 23.066406 C 26.453125 22.78125 26.226562 22.554688 25.941406 22.554688 L 3.417969 22.554688 L 3.417969 6.363281 L 31.582031 6.363281 L 31.582031 22.554688 L 27.855469 22.554688 C 27.574219 22.554688 27.34375 22.78125 27.34375 23.066406 C 27.34375 23.347656 27.574219 23.578125 27.855469 23.578125 L 32.09375 23.578125 C 32.378906 23.578125 32.605469 23.347656 32.605469 23.066406 L 32.605469 5.851562 C 32.605469 5.566406 32.378906 5.339844 32.09375 5.339844 Z M 32.09375 5.339844 "/>
</g>
</svg>
