<svg xmlns="http://www.w3.org/2000/svg" width="35" height="35" xmlns:v="https://vecta.io/nano"><path d="M1.87 21.47c.113.313.297.6.527.82.406.406.97.66 1.6.66a2.25 2.25 0 0 0 1.59-.66c.4-.4.664-.973.664-1.6v-1.254a2.6 2.6 0 0 1-1.219-.199l-.102.414c-.164.523-.434 1-.86 1.344s-1.004.55-1.766.512c-.133-.008-.277-.023-.426-.047zm13.28-3.355h4.508v-1.418h-3.47c-.285 0-.547.117-.734.31a1.03 1.03 0 0 0-.305.73zm4.508 1.023h-4.508v1.56c0 .62.254 1.184.664 1.594s.973.66 1.6.66 1.184-.254 1.6-.66.664-.973.664-1.594zm14.05 3.422a2.44 2.44 0 0 1 .715.578A2.4 2.4 0 0 1 35 24.695v3.457c0 .28-.23.512-.512.512s-.512-.23-.512-.512v-3.457c0-.34-.125-.656-.332-.898-.18-.215-.426-.375-.707-.45a3.26 3.26 0 0 1-1.922.629 3.27 3.27 0 0 1-1.98-.668c-.105.012-.207.04-.305.086-.133.06-.25.156-.348.28l-2.754 3.648c-.098.13-.246.207-.4.207H21.69c-.262 0-.496.102-.668.273s-.277.4-.277.668a.93.93 0 0 0 .277.668.94.94 0 0 0 .668.277h4.215c.168 0 .297-.016.46-.098.297-.148.574-.602.777-.875l1.824-2.4c.172-.227.492-.273.72-.102a.51.51 0 0 1 .098.715l-1.734 2.3v4.47h5.926v-2.945c0-.28.23-.512.512-.512s.512.23.512.512v3.457a.51.51 0 0 1-.512.512H.512A.51.51 0 0 1 0 33.93v-3.457c0-.28.23-.512.512-.512a.51.51 0 0 1 .512.512v2.945H6.95v-4.47l-1.734-2.3c-.172-.223-.125-.543.102-.715s.547-.125.715.102l1.785 2.36.488.648c.1.12.207.215.332.277a.91.91 0 0 0 .43.098h4.242c.262 0 .496-.105.672-.277.168-.168.273-.406.273-.668a.96.96 0 0 0-.273-.668.95.95 0 0 0-.672-.273H9.78a.52.52 0 0 1-.41-.207l-2.754-3.648c-.156-.207-.39-.34-.652-.367a3.25 3.25 0 0 1-1.977.668c-.72 0-1.383-.234-1.926-.625-.273.07-.52.227-.7.438-.21.242-.34.56-.34.906v3.457a.51.51 0 0 1-.512.512c-.28 0-.512-.23-.512-.512v-3.457a2.4 2.4 0 0 1 .59-1.574c.195-.227.434-.422.703-.562C.9 22.012.71 21.363.71 20.7v-2.965c0-.57.23-1.086.602-1.457s.89-.605 1.457-.605h2.434a2.04 2.04 0 0 1 1.457.605 2.04 2.04 0 0 1 .605 1.457V20.7a3.24 3.24 0 0 1-.531 1.781c.277.14.512.332.7.582l2.602 3.44h2.05v-2.082c0-.586.313-1.12.816-1.57.395-.352.906-.656 1.477-.895a3.3 3.3 0 0 1-.25-1.258v-2.965a2.04 2.04 0 0 1 2.063-2.062h3.984c.28 0 .512.23.512.512V20.7c0 .418-.082.82-.227 1.195.613.238 1.168.547 1.586.9.535.46.867 1.012.867 1.617v2.082h2.05l2.602-3.44c.19-.254.43-.445.7-.578a3.26 3.26 0 0 1-.531-1.785v-2.965a2.04 2.04 0 0 1 2.063-2.062h2.434c.566 0 1.082.23 1.457.605s.605.887.605 1.457V20.7c0 .664-.203 1.313-.582 1.86zm-.582-1.1l-.426.047c-.758.04-1.332-.164-1.766-.512-.426-.344-.695-.82-.86-1.344l-.102-.414a2.6 2.6 0 0 1-1.219.199V20.7c0 .617.254 1.18.664 1.6s.973.66 1.594.66 1.18-.254 1.6-.66c.227-.23.4-.508.523-.82zm-4.37-3.05c.684.094 1.184-.3 1.273-.38.102-.086.195-.137.332-.145a.51.51 0 0 1 .535.488c.02.332.066.668.16.977.105.344.27.645.52.848s.594.31 1.074.285a3.78 3.78 0 0 0 .613-.086v-2.672c0-.285-.117-.543-.305-.734a1.03 1.03 0 0 0-.73-.305h-2.434a1.03 1.03 0 0 0-.73.305c-.19.19-.31.45-.31.734zm-22.516 0v-.684c0-.285-.117-.543-.305-.734a1.04 1.04 0 0 0-.734-.305H2.77a1.03 1.03 0 0 0-.73.305c-.187.19-.305.45-.305.734v2.672a3.78 3.78 0 0 0 .613.086c.48.023.828-.086 1.074-.285s.414-.504.523-.848c.094-.31.14-.645.156-.977a.51.51 0 0 1 .535-.488.52.52 0 0 1 .328.141c.07.063.578.48 1.277.383zm8.688 4.422c-.535.207-1.008.47-1.348.773-.29.258-.473.54-.473.81v2.082h.2c.543 0 1.04.22 1.395.578s.578.848.578 1.39c0 .344-.1.664-.242.945h4.922c-.152-.28-.242-.602-.242-.945 0-.543.223-1.035.578-1.39s.852-.578 1.395-.578h.2v-2.082c0-.28-.195-.57-.508-.84-.37-.316-.883-.6-1.45-.797l-.21.227c-.594.598-1.414.965-2.316.965s-1.723-.367-2.316-.965l-.16-.172zM4.273 4.355a.51.51 0 0 1-.512-.516.51.51 0 0 1 .512-.512h9.492c.28 0 .512.23.512.512s-.23.516-.512.516zm0 5.395a.51.51 0 1 1 0-1.027H9.02c.28 0 .512.23.512.512s-.23.516-.512.516zm0-2.7a.51.51 0 1 1 0-1.023h9.492a.51.51 0 0 1 .512.512c0 .28-.23.512-.512.512zm10.016 5.47a1.44 1.44 0 0 0 .332.523c.258.262.62.422 1.02.422h3.016c.28 0 .512.23.512.516s-.23.512-.512.512H15.64c-.684 0-1.3-.28-1.746-.73a2.48 2.48 0 0 1-.668-1.242H6.078l-2.324 2.32a.5.5 0 0 1-.363.152c-.28 0-.512-.23-.512-.512v-2.004c-.652-.11-1.234-.422-1.684-.87A3.1 3.1 0 0 1 .281 9.41V3.668a3.1 3.1 0 0 1 .914-2.195A3.1 3.1 0 0 1 3.391.559h11.254c.86 0 1.637.352 2.195.914.566.563.914 1.34.914 2.195v.95h8.707c.68 0 1.297.277 1.746.723s.723 1.066.723 1.746v4.938a2.46 2.46 0 0 1-.723 1.742c-.332.332-.758.57-1.234.672v2.016c0 .13-.047.262-.148.36-.2.203-.523.203-.723 0l-2.324-2.32h-2.8c-.28 0-.512-.23-.512-.512s.23-.516.512-.516h3.012c.145 0 .273.06.367.152l1.594 1.598V13.98c0-.285.23-.516.512-.516.398 0 .758-.16 1.02-.422s.426-.625.426-1.02V7.086c0-.398-.164-.758-.426-1.02s-.62-.426-1.02-.426h-8.707V9.4c0 .855-.348 1.633-.914 2.195s-1.336.914-2.195.914zm-8.426-1.027h8.78c.574 0 1.094-.234 1.473-.613s.613-.898.613-1.47V3.668c0-.574-.234-1.094-.613-1.473s-.898-.613-1.473-.613H3.39a2.06 2.06 0 0 0-1.469.613c-.38.38-.613.898-.613 1.473V9.4c0 .57.234 1.094.613 1.47a2.06 2.06 0 0 0 1.469.613.51.51 0 0 1 .512.516v1.234L5.5 11.645a.51.51 0 0 1 .363-.152zm21.164 18.953H7.977v2.973h19.05zm0 0" fill="#08c"/></svg>