<svg xmlns="http://www.w3.org/2000/svg" width="35" height="35" fill="#08c" xmlns:v="https://vecta.io/nano"><path d="M6.594 27.84c1.2-1.066 1.328-2.9.262-4.117a2.91 2.91 0 0 0-4.117-.262 2.92 2.92 0 0 0-.262 4.117l.262.262A4.67 4.67 0 0 0 0 32.082v2.336c0 .32.262.582.582.582H8.75c.32 0 .582-.262.582-.582v-2.336c0-1.828-1.07-3.488-2.738-4.242zm-1.926-3.922a1.75 1.75 0 0 1 1.75 1.75c0 .965-.785 1.75-1.75 1.75s-1.75-.785-1.75-1.75a1.75 1.75 0 0 1 1.75-1.75zm3.5 9.914h-7v-1.75a3.5 3.5 0 0 1 7 0zm24.094-5.992a2.92 2.92 0 0 0 .262-4.117c-1.062-1.217-2.9-1.328-4.117-.262a2.91 2.91 0 0 0-.262 4.117l.262.262c-1.668.754-2.738 2.414-2.738 4.242v2.336a.58.58 0 0 0 .582.582h8.168c.32 0 .582-.262.582-.582v-2.336a4.67 4.67 0 0 0-2.738-4.242zm-1.93-3.922c.97 0 1.75.78 1.75 1.75a1.75 1.75 0 0 1-1.75 1.75 1.76 1.76 0 0 1-1.75-1.75 1.75 1.75 0 0 1 1.75-1.75zm3.5 9.914h-7v-1.75a3.5 3.5 0 1 1 7 0zM19.832 0C11.47 0 4.668 5.332 4.668 11.9c0 3.45 1.895 6.7 5.203 8.97a6.71 6.71 0 0 1-.574 1.04c-.477.758-.887 1.4-.703 1.984a.89.89 0 0 0 .516.551.94.94 0 0 0 .375.066c.973-.137 1.926-.4 2.836-.766a19.08 19.08 0 0 1 2.277-.68 19.03 19.03 0 0 0 5.234.727C28.195 23.78 35 18.445 35 11.9S28.195 0 19.832 0zm0 22.613a17.72 17.72 0 0 1-4.9-.68c-.434-.125-1.16.094-2.973.695-.66.223-1.582.527-2.117.652a10.89 10.89 0 0 1 .453-.762c.547-.87 1.234-1.96.363-2.543-3.063-2.043-4.816-4.988-4.816-8.086 0-5.914 6.28-10.723 14-10.723s14 4.8 14 10.723-6.277 10.723-14 10.723zm11.086-10.07a1.79 1.79 0 0 0-.195-.812c.484-.36.77-.922.777-1.523-.086-1.203-1.13-2.113-2.332-2.04h-5.836V4.375a2.04 2.04 0 1 0-4.082 0v3.793h-7.582a.58.58 0 0 0-.586.582v9.918c0 .32.262.582.586.582h15.457c1.13 0 2.04-.914 2.043-2.043 0-.156-.02-.3-.055-.46 1.03-.453 1.5-1.66 1.047-2.7.465-.367.746-.922.758-1.512zm-15.75 5.54H12.25v-8.75h2.918zm2.332 0h-1.168v-8.75H17.5zM29.66 11c-.3.105-.46.44-.352.746.03.1.1.172.16.238a.74.74 0 0 1 .28.56c-.035.36-.285.664-.633.77-.3.117-.445.457-.328.758.03.07.07.137.125.2.34.344.336.898-.008 1.238-.164.16-.4.254-.62.25a.58.58 0 0 0-.582.582.57.57 0 0 0 .117.352.87.87 0 0 1-.16 1.22.85.85 0 0 1-.535.18h-8.457v-8.75h1.164a.58.58 0 0 0 .586-.582V4.375c0-.484.4-.875.875-.875s.875.4.875.875V8.75a.58.58 0 0 0 .582.582h6.418c.633 0 1.164.402 1.164.875a.91.91 0 0 1-.672.793zm0 0"/></svg>